<?xml version="1.0" encoding="UTF-8"?><svg id="_レイヤー_2" xmlns="http://www.w3.org/2000/svg" xmlns:xlink="http://www.w3.org/1999/xlink" viewBox="0 0 248.4 376.85"><defs><style>.cls-1{fill:url(#Gold);}.cls-2{fill:#5a589e;}.cls-2,.cls-3,.cls-4,.cls-5{fill-rule:evenodd;}.cls-3{fill:#1c208e;}.cls-6{fill:url(#Gold-7);}.cls-7{fill:url(#Gold-6);}.cls-8{fill:url(#Gold-2);}.cls-9{fill:url(#Gold-9);}.cls-10{fill:url(#Gold-4);}.cls-11{fill:url(#Gold-3);}.cls-12{fill:url(#Gold-8);}.cls-13{fill:url(#Gold-5);}.cls-14{fill:#fcff92;}.cls-4{fill:#333f94;}.cls-5{fill:#393f97;}.cls-15{fill:url(#Gold-10);}.cls-16{fill:url(#Gold-11);}.cls-17{fill:url(#Gold-13);}.cls-18{fill:url(#Gold-12);}.cls-19{fill:url(#Gold-14);}</style><linearGradient id="Gold" x1="79.99" y1="92.03" x2="137.73" y2="92.03" gradientUnits="userSpaceOnUse"><stop offset="0" stop-color="#fbc926"/><stop offset=".25" stop-color="#fffbcc"/><stop offset=".3" stop-color="#f8efba"/><stop offset=".41" stop-color="#e7d18d"/><stop offset=".55" stop-color="#cca246"/><stop offset=".6" stop-color="#c3922e"/><stop offset=".87" stop-color="#eed688"/><stop offset="1" stop-color="#fffbcc"/></linearGradient><linearGradient id="Gold-2" x1="200.99" y1="21.38" x2="242.96" y2="21.38" xlink:href="#Gold"/><linearGradient id="Gold-3" x1="225.9" y1="58.37" x2="243.64" y2="58.37" xlink:href="#Gold"/><linearGradient id="Gold-4" x1="216.5" y1="101.93" x2="229.56" y2="101.93" xlink:href="#Gold"/><linearGradient id="Gold-5" x1="207.54" y1="148.52" x2="218.11" y2="148.52" xlink:href="#Gold"/><linearGradient id="Gold-6" x1="145.66" y1="115.79" x2="216.6" y2="115.79" xlink:href="#Gold"/><linearGradient id="Gold-7" x1="111.93" y1="159.62" x2="138.73" y2="159.62" xlink:href="#Gold"/><linearGradient id="Gold-8" x1="83.81" y1="234.05" x2="115.41" y2="234.05" xlink:href="#Gold"/><linearGradient id="Gold-9" x1="206.83" y1="214.6" x2="223.35" y2="214.6" xlink:href="#Gold"/><linearGradient id="Gold-10" x1="117.31" y1="235.35" x2="223.32" y2="235.35" xlink:href="#Gold"/><linearGradient id="Gold-11" x1="202.9" y1="290.98" x2="224.47" y2="290.98" xlink:href="#Gold"/><linearGradient id="Gold-12" x1="153.42" y1="325.99" x2="203.2" y2="325.99" xlink:href="#Gold"/><linearGradient id="Gold-13" x1="123.37" y1="338.88" x2="151.33" y2="338.88" xlink:href="#Gold"/><linearGradient id="Gold-14" x1="16.86" y1="296.65" x2="81.94" y2="296.65" xlink:href="#Gold"/></defs><g id="_レイヤー_2-2"><path class="cls-3" d="M205.65,185.74c.52-.51,1.04-1.02,1.55-1.53-.52.51-1.04,1.02-1.55,1.53Z"/><path class="cls-5" d="M75.67,262.36c.05-.49.08-.98.1-1.47,2.22,0,4.49-.23,6.32,1.47,0,0-.21.23-.21.23-2.05,1.62-4.08,1.97-6.08-.09l-.13-.14Z"/><path class="cls-2" d="M75.8,262.5c2.03.03,4.05.05,6.08.08-.18,1.22-.09,2.57-.59,3.64-.88,1.9-2.59,2.5-4.34,1.9-1.63-.55-2.15-1.76-1.75-4.26.08-.48.4-.91.61-1.37Z"/><path class="cls-4" d="M89.91,87.26c1.72-.13,3.36-.02,4.59,1.42-1.7.08-3.35-.02-4.59-1.42Z"/><path class="cls-1" d="M135.97,108.21l-9.1-4.7,1.76-3.41,9.1,4.7-1.76,3.41ZM117.77,98.8l-9.1-4.7,1.76-3.41,9.1,4.7-1.76,3.41ZM99.58,89.39l-9.1-4.7,1.76-3.41,9.1,4.7-1.76,3.41ZM81.39,79.98l-1.4-.72,1.76-3.41,1.4.72-1.76,3.41Z"/><path class="cls-8" d="M240.67,37.64l-6.79-5.03,2.29-3.08,6.79,5.03-2.29,3.08ZM225.66,26.51l-8.22-6.1,2.29-3.08,8.22,6.1-2.29,3.08ZM209.21,14.3l-8.22-6.1,2.29-3.08,8.22,6.1-2.29,3.08Z"/><path class="cls-11" d="M229.56,81.22l-3.66-1.16,1.73-5.49,3.66,1.16-1.73,5.49ZM234.38,65.97l-3.66-1.16,3.09-9.76,3.66,1.16-3.09,9.76ZM240.56,46.44l-3.66-1.16,3.09-9.76,3.66,1.16-3.09,9.76Z"/><path class="cls-10" d="M220.16,117.14l-3.66-1.18,3.13-9.75,3.66,1.18-3.13,9.75ZM226.43,97.64l-3.66-1.18,3.13-9.75,3.66,1.18-3.13,9.75Z"/><path class="cls-13" d="M211.35,174.15l-3.81-.51,1.35-10.15,3.81.51-1.35,10.15ZM214.05,153.85l-3.81-.51,1.35-10.15,3.81.51-1.35,10.15ZM216.76,133.55l-3.81-.51,1.35-10.15,3.81.51-1.35,10.15Z"/><path class="cls-7" d="M215.82,125.02l-10.02-2.1.79-3.76,10.02,2.1-.79,3.76ZM195.77,120.82l-10.02-2.1.79-3.76,10.02,2.1-.79,3.76ZM175.73,116.62l-10.02-2.1.79-3.76,10.02,2.1-.79,3.76ZM155.68,112.41l-10.02-2.1.79-3.76,10.02,2.1-.79,3.76Z"/><path class="cls-6" d="M115.68,213.15l-3.75-.81,1.34-6.17,3.75.81-1.34,6.17ZM119.19,196.98l-3.75-.81,2.17-10.01,3.75.81-2.17,10.01ZM123.53,176.96l-3.75-.81,2.17-10.01,3.75.81-2.17,10.01ZM127.87,156.95l-3.75-.81,2.17-10.01,3.75.81-2.17,10.01ZM132.21,136.93l-3.75-.81,2.17-10.01,3.75.81-2.17,10.01ZM136.55,116.92l-3.75-.81,2.17-10.01,3.75.81-2.17,10.01Z"/><path class="cls-12" d="M87,256.41l-3.2-2.13,5.68-8.52,3.2,2.13-5.68,8.52ZM98.36,239.37l-3.2-2.13,5.68-8.52,3.2,2.13-5.68,8.52ZM109.72,222.33l-3.2-2.13,5.68-8.52,3.2,2.13-5.68,8.52Z"/><path class="cls-9" d="M219.57,250.21l-1.82-10.08,3.78-.68,1.82,10.08-3.78.68ZM215.93,230.06l-1.82-10.08,3.78-.68,1.82,10.08-3.78.68ZM212.29,209.9l-1.82-10.08,3.78-.68,1.82,10.08-3.78.68ZM208.65,189.75l-1.82-10.08,3.78-.68,1.82,10.08-3.78.68Z"/><path class="cls-15" d="M221.9,258.05l-9.51-3.8,1.43-3.57,9.51,3.8-1.43,3.57ZM202.88,250.44l-9.51-3.8,1.43-3.57,9.51,3.8-1.43,3.57ZM183.87,242.84l-9.51-3.8,1.43-3.57,9.51,3.8-1.43,3.57ZM164.85,235.23l-9.51-3.8,1.43-3.57,9.51,3.8-1.43,3.57ZM145.83,227.62l-9.51-3.8,1.43-3.57,9.51,3.8-1.43,3.57ZM126.82,220.02l-9.51-3.8,1.43-3.57,9.51,3.8-1.43,3.57Z"/><path class="cls-16" d="M206.62,326.17l-3.72-.96,2.55-9.92,3.72.96-2.55,9.92ZM211.72,306.33l-3.72-.96,2.55-9.92,3.72.96-2.55,9.92ZM216.82,286.5l-3.72-.96,2.55-9.92,3.72.96-2.55,9.92ZM221.92,266.66l-3.72-.96,2.55-9.92,3.72.96-2.55,9.92Z"/><path class="cls-18" d="M201.99,335.91l-9.71-3.24,1.21-3.64,9.71,3.24-1.21,3.64ZM182.56,329.43l-9.71-3.24,1.21-3.64,9.71,3.24-1.21,3.64ZM163.13,322.95l-9.71-3.24,1.22-3.64,9.71,3.24-1.22,3.64Z"/><path class="cls-17" d="M126.74,362.26l-3.37-1.84,4.92-8.98,3.37,1.84-4.92,8.98ZM136.58,344.3l-3.37-1.84,4.92-8.98,3.37,1.84-4.92,8.98ZM146.41,326.33l-3.37-1.84,4.92-8.98,3.37,1.84-4.92,8.98Z"/><path class="cls-19" d="M19.69,331.93l-2.83-2.59,6.92-7.55,2.83,2.59-6.92,7.55ZM33.53,316.82l-2.83-2.59,6.92-7.55,2.83,2.59-6.92,7.55ZM47.36,301.72l-2.83-2.59,6.92-7.55,2.83,2.59-6.92,7.55ZM61.19,286.62l-2.83-2.59,6.92-7.55,2.83,2.59-6.92,7.55ZM75.03,271.51l-2.83-2.59,6.92-7.55,2.83,2.59-6.92,7.55Z"/><polygon class="cls-14" points="94.55 89.2 83.79 86.26 75.27 93.44 74.75 82.31 65.28 76.43 75.71 72.49 78.38 61.67 85.35 70.37 96.46 69.56 90.34 78.87 94.55 89.2"/><polygon class="cls-14" points="29.26 345.21 18.51 342.26 9.99 349.45 9.47 338.32 0 332.44 10.43 328.5 13.1 317.67 20.06 326.37 31.18 325.56 25.06 334.88 29.26 345.21"/><polygon class="cls-14" points="213.43 351.64 201.9 345.5 190.3 351.51 192.58 338.65 183.28 329.47 196.22 327.67 202.07 315.98 207.79 327.73 220.7 329.69 211.3 338.75 213.43 351.64"/><path class="cls-14" d="M208.72,6.66c0,3.68-2.95,6.66-6.59,6.66s-6.59-2.98-6.59-6.66,2.95-6.66,6.59-6.66,6.59,2.98,6.59,6.66Z"/><path class="cls-14" d="M143.44,106.5c0,3.68-2.95,6.66-6.59,6.66s-6.59-2.98-6.59-6.66,2.95-6.66,6.59-6.66,6.59,2.98,6.59,6.66Z"/><path class="cls-14" d="M222.8,123.14c0,3.68-2.95,6.66-6.59,6.66s-6.59-2.98-6.59-6.66,2.95-6.66,6.59-6.66,6.59,2.98,6.59,6.66Z"/><path class="cls-14" d="M215.12,180.74c0,3.68-2.95,6.66-6.59,6.66s-6.59-2.98-6.59-6.66,2.95-6.66,6.59-6.66,6.59,2.98,6.59,6.66Z"/><path class="cls-14" d="M229.2,256.27c0,3.68-2.95,6.66-6.59,6.66s-6.59-2.98-6.59-6.66,2.95-6.66,6.59-6.66,6.59,2.98,6.59,6.66Z"/><path class="cls-14" d="M120.4,212.75c0,3.68-2.95,6.66-6.59,6.66s-6.59-2.98-6.59-6.66,2.95-6.66,6.59-6.66,6.59,2.98,6.59,6.66Z"/><path class="cls-14" d="M87.12,262.67c0,3.68-2.95,6.66-6.59,6.66s-6.59-2.98-6.59-6.66,2.95-6.66,6.59-6.66,6.59,2.98,6.59,6.66Z"/><path class="cls-14" d="M156.24,316.43c0,3.68-2.95,6.66-6.59,6.66s-6.59-2.98-6.59-6.66,2.95-6.66,6.59-6.66,6.59,2.98,6.59,6.66Z"/><path class="cls-14" d="M126.8,370.19c0,3.68-2.95,6.66-6.59,6.66s-6.59-2.98-6.59-6.66,2.95-6.66,6.59-6.66,6.59,2.98,6.59,6.66Z"/><path class="cls-14" d="M234.32,87.3c0,3.68-2.95,6.66-6.59,6.66s-6.59-2.98-6.59-6.66,2.95-6.66,6.59-6.66,6.59,2.98,6.59,6.66Z"/><path class="cls-14" d="M248.4,36.1c0,3.68-2.95,6.66-6.59,6.66s-6.59-2.98-6.59-6.66,2.95-6.66,6.59-6.66,6.59,2.98,6.59,6.66Z"/></g></svg>