<?xml version="1.0" encoding="UTF-8"?><svg id="_レイヤー_2" xmlns="http://www.w3.org/2000/svg" xmlns:xlink="http://www.w3.org/1999/xlink" viewBox="0 0 254.07 284.97"><defs><style>.cls-1{fill:url(#Gold);}.cls-2{fill:url(#Gold-7);}.cls-3{fill:url(#Gold-6);}.cls-4{fill:url(#Gold-2);}.cls-5{fill:url(#Gold-4);}.cls-6{fill:url(#Gold-3);}.cls-7{fill:url(#Gold-5);}.cls-8{fill:#fcff92;}</style><linearGradient id="Gold" x1="52.12" y1="103.74" x2="63.05" y2="103.74" gradientUnits="userSpaceOnUse"><stop offset="0" stop-color="#fbc926"/><stop offset=".25" stop-color="#fffbcc"/><stop offset=".3" stop-color="#f8efba"/><stop offset=".41" stop-color="#e7d18d"/><stop offset=".55" stop-color="#cca246"/><stop offset=".6" stop-color="#c3922e"/><stop offset=".87" stop-color="#eed688"/><stop offset="1" stop-color="#fffbcc"/></linearGradient><linearGradient id="Gold-2" x1="61.02" y1="31.89" x2="189.32" y2="31.89" xlink:href="#Gold"/><linearGradient id="Gold-3" x1="192.11" y1="73.98" x2="249.93" y2="73.98" xlink:href="#Gold"/><linearGradient id="Gold-4" x1="64.66" y1="90.96" x2="249.12" y2="90.96" xlink:href="#Gold"/><linearGradient id="Gold-5" x1="192.27" y1="191.24" x2="249.93" y2="191.24" xlink:href="#Gold"/><linearGradient id="Gold-6" x1="192.91" y1="264.52" x2="243.82" y2="264.52" xlink:href="#Gold"/><linearGradient id="Gold-7" x1="9.28" y1="181.72" x2="54.91" y2="181.72" xlink:href="#Gold"/></defs><g id="_レイヤー_2-2"><path class="cls-8" d="M254.07,132.72c0,3.14-2.52,5.69-5.63,5.69s-5.63-2.55-5.63-5.69,2.52-5.69,5.63-5.69,5.63,2.55,5.63,5.69Z"/><path class="cls-1" d="M55.39,160.18l-3.27-.22.54-7.9,3.27.22-.54,7.9ZM56.52,143.55l-3.27-.22.59-8.73,3.27.22-.59,8.73ZM57.71,126.09l-3.27-.22.59-8.73,3.27.22-.59,8.73ZM58.89,108.63l-3.27-.22.59-8.73,3.27.22-.59,8.73ZM60.08,91.17l-3.27-.22.59-8.73,3.27.22-.59,8.73ZM61.27,73.71l-3.27-.22.59-8.73,3.27.22-.59,8.73ZM62.45,56.25l-3.27-.22.59-8.73,3.27.22-.59,8.73Z"/><path class="cls-4" d="M61.8,49l-.78-3.19,8.5-2.07.78,3.19-8.5,2.07ZM78.8,44.87l-.78-3.19,8.5-2.07.78,3.19-8.5,2.07ZM95.81,40.73l-.78-3.19,8.5-2.07.78,3.19-8.5,2.07ZM112.81,36.59l-.78-3.19,8.5-2.07.78,3.19-8.5,2.07ZM129.81,32.45l-.78-3.19,8.5-2.07.78,3.19-8.5,2.07ZM146.82,28.31l-.78-3.19,8.5-2.07.78,3.19-8.5,2.07ZM163.82,24.17l-.78-3.19,8.5-2.07.78,3.19-8.5,2.07ZM180.82,20.03l-.78-3.19,8.5-2.07.78,3.19-8.5,2.07Z"/><path class="cls-6" d="M246.95,133.42l-3.03-6.49,2.97-1.39,3.03,6.49-2.97,1.39ZM240.23,119l-3.7-7.93,2.97-1.39,3.7,7.93-2.97,1.39ZM232.82,103.14l-3.7-7.93,2.97-1.39,3.7,7.93-2.97,1.39ZM225.42,87.29l-3.7-7.93,2.97-1.39,3.7,7.93-2.97,1.39ZM218.02,71.43l-3.7-7.93,2.97-1.39,3.7,7.93-2.97,1.39ZM210.62,55.57l-3.7-7.93,2.97-1.39,3.7,7.93-2.97,1.39ZM203.22,39.71l-3.7-7.93,2.97-1.39,3.7,7.93-2.97,1.39ZM195.82,23.86l-3.7-7.93,2.97-1.39,3.7,7.93-2.97,1.39Z"/><path class="cls-5" d="M247.76,134.21l-7.96-3.63,1.36-2.99,7.96,3.63-1.36,2.99ZM231.84,126.95l-7.96-3.63,1.36-2.99,7.96,3.63-1.36,2.99ZM215.92,119.69l-7.96-3.63,1.36-2.99,7.96,3.63-1.36,2.99ZM199.99,112.43l-7.96-3.63,1.36-2.99,7.96,3.63-1.36,2.99ZM184.07,105.16l-7.96-3.63,1.36-2.99,7.96,3.63-1.36,2.99ZM168.15,97.9l-7.96-3.63,1.36-2.99,7.96,3.63-1.36,2.99ZM152.23,90.64l-7.96-3.63,1.36-2.99,7.96,3.63-1.36,2.99ZM136.31,83.38l-7.96-3.63,1.36-2.99,7.96,3.63-1.36,2.99ZM120.39,76.11l-7.96-3.63,1.36-2.99,7.96,3.63-1.36,2.99ZM104.46,68.85l-7.96-3.63,1.36-2.99,7.96,3.63-1.36,2.99ZM88.54,61.59l-7.96-3.63,1.36-2.99,7.96,3.63-1.36,2.99ZM72.62,54.33l-7.96-3.63,1.36-2.99,7.96,3.63-1.36,2.99Z"/><path class="cls-7" d="M195.24,250.45l-2.97-1.39,2.83-6.05,2.97,1.39-2.83,6.05ZM201.77,236.47l-2.97-1.39,3.7-7.93,2.97,1.39-3.7,7.93ZM209.18,220.62l-2.97-1.39,3.7-7.93,2.97,1.39-3.7,7.93ZM216.59,204.76l-2.97-1.39,3.7-7.93,2.97,1.39-3.7,7.93ZM224,188.91l-2.97-1.39,3.7-7.93,2.97,1.39-3.7,7.93ZM231.41,173.05l-2.97-1.39,3.7-7.93,2.97,1.39-3.7,7.93ZM238.81,157.2l-2.97-1.39,3.7-7.93,2.97,1.39-3.7,7.93ZM246.22,141.34l-2.97-1.39,3.7-7.93,2.97,1.39-3.7,7.93Z"/><path class="cls-3" d="M242.13,280.69l-4.2-2.52,1.69-2.81,4.2,2.52-1.69,2.81ZM230.42,273.67l-7.5-4.5,1.69-2.81,7.5,4.5-1.69,2.81ZM215.42,264.66l-7.5-4.5,1.69-2.81,7.5,4.5-1.69,2.81ZM200.41,255.66l-7.5-4.5,1.69-2.81,7.5,4.5-1.69,2.81Z"/><path class="cls-2" d="M11.6,204.54l-2.32-2.32,6.19-6.19,2.32,2.32-6.19,6.19ZM23.98,192.16l-2.32-2.32,6.19-6.19,2.32,2.32-6.19,6.19ZM36.35,179.79l-2.32-2.32,6.19-6.19,2.32,2.32-6.19,6.19ZM48.73,167.41l-2.32-2.32,6.19-6.19,2.32,2.32-6.19,6.19Z"/><polygon class="cls-8" points="72.3 57.78 63.11 55.27 55.83 61.41 55.38 51.89 47.29 46.87 56.2 43.5 58.48 34.26 64.43 41.69 73.93 41 68.7 48.96 72.3 57.78"/><polygon class="cls-8" points="203.41 30.47 193.56 25.22 183.64 30.35 185.59 19.36 177.65 11.52 188.7 9.98 193.7 0 198.59 10.04 209.62 11.71 201.58 19.45 203.41 30.47"/><path class="cls-8" d="M199.38,249.75c0,3.14-2.52,5.69-5.63,5.69s-5.63-2.55-5.63-5.69,2.52-5.69,5.63-5.69,5.63,2.55,5.63,5.69Z"/><path class="cls-8" d="M59.38,160.07c0,3.14-2.52,5.69-5.63,5.69s-5.63-2.55-5.63-5.69,2.52-5.69,5.63-5.69,5.63,2.55,5.63,5.69Z"/><path class="cls-8" d="M11.26,208.19c0,3.14-2.52,5.69-5.63,5.69s-5.63-2.55-5.63-5.69,2.52-5.69,5.63-5.69,5.63,2.55,5.63,5.69Z"/><path class="cls-8" d="M248.6,279.28c0,3.14-2.52,5.69-5.63,5.69s-5.63-2.55-5.63-5.69,2.52-5.69,5.63-5.69,5.63,2.55,5.63,5.69Z"/></g></svg>