<?xml version="1.0" encoding="UTF-8"?><svg id="_レイヤー_2" xmlns="http://www.w3.org/2000/svg" xmlns:xlink="http://www.w3.org/1999/xlink" viewBox="0 0 272.83 165.89"><defs><style>.cls-1{fill:url(#Gold);}.cls-2{fill:url(#Gold-6);}.cls-3{fill:url(#Gold-2);}.cls-4{fill:url(#Gold-4);}.cls-5{fill:url(#Gold-3);}.cls-6{fill:url(#Gold-5);}.cls-7{fill:#fcff92;}</style><linearGradient id="Gold" x1="4.32" y1="14.92" x2="59.86" y2="14.92" gradientTransform="translate(42.57 -42.52) rotate(60.95)" gradientUnits="userSpaceOnUse"><stop offset="0" stop-color="#fbc926"/><stop offset=".25" stop-color="#fffbcc"/><stop offset=".3" stop-color="#f8efba"/><stop offset=".41" stop-color="#e7d18d"/><stop offset=".55" stop-color="#cca246"/><stop offset=".6" stop-color="#c3922e"/><stop offset=".87" stop-color="#eed688"/><stop offset="1" stop-color="#fffbcc"/></linearGradient><linearGradient id="Gold-2" x1="6.74" y1="60.51" x2="59.54" y2="60.51" gradientTransform="matrix(1,0,0,1,0,0)" xlink:href="#Gold"/><linearGradient id="Gold-3" x1="4.32" y1="106.1" x2="59.86" y2="106.1" gradientTransform="translate(96.22 48.67) rotate(60.95)" xlink:href="#Gold"/><linearGradient id="Gold-4" x1="57.76" y1="51.1" x2="217.02" y2="51.1" gradientTransform="matrix(1,0,0,1,0,0)" xlink:href="#Gold"/><linearGradient id="Gold-5" x1="215.35" y1="106.57" x2="262.96" y2="106.57" gradientTransform="matrix(1,0,0,1,0,0)" xlink:href="#Gold"/><linearGradient id="Gold-6" x1="260.4" y1="142.16" x2="268.91" y2="142.16" gradientTransform="matrix(1,0,0,1,0,0)" xlink:href="#Gold"/></defs><g id="_レイヤー_2-2"><rect class="cls-1" x="55.28" y="13.31" width="4.27" height="3.21" transform="translate(16.49 57.87) rotate(-60.95)"/><path class="cls-3" d="M13.61,97.06l-2.8-1.56,4.42-7.95,2.8,1.56-4.42,7.95ZM22.45,81.16l-2.8-1.56,4.42-7.95,2.8,1.56-4.42,7.95ZM31.28,65.26l-2.8-1.56,4.42-7.95,2.8,1.56-4.42,7.95ZM40.11,49.36l-2.8-1.56,4.42-7.95,2.8,1.56-4.42,7.95ZM48.95,33.46l-2.8-1.56,4.42-7.95,2.8,1.56-4.42,7.95Z"/><rect class="cls-5" x="4.62" y="104.5" width="4.27" height="3.21" transform="translate(-89.27 60.48) rotate(-60.95)"/><path class="cls-4" d="M215.62,90.59l-3.83-1.85,1.39-2.89,3.83,1.85-1.39,2.89ZM204.09,85.03l-7.7-3.71,1.39-2.89,7.7,3.71-1.39,2.89ZM188.69,77.6l-7.7-3.71,1.39-2.89,7.7,3.71-1.39,2.89ZM173.28,70.18l-7.7-3.71,1.39-2.89,7.7,3.71-1.39,2.89ZM157.88,62.75l-7.7-3.71,1.39-2.89,7.7,3.71-1.39,2.89ZM142.48,55.33l-7.7-3.71,1.39-2.89,7.7,3.71-1.39,2.89ZM127.07,47.9l-7.7-3.71,1.39-2.89,7.7,3.71-1.39,2.89ZM111.67,40.48l-7.7-3.71,1.39-2.89,7.7,3.71-1.39,2.89ZM96.27,33.05l-7.7-3.71,1.39-2.89,7.7,3.71-1.39,2.89ZM80.87,25.63l-7.7-3.71,1.39-2.89,7.7,3.71-1.39,2.89ZM65.46,18.2l-7.7-3.71,1.39-2.89,7.7,3.71-1.39,2.89Z"/><path class="cls-6" d="M261.01,125.27l-4.89-3.73,1.95-2.55,4.89,3.73-1.95,2.55ZM249.33,116.35l-6.8-5.19,1.95-2.55,6.8,5.19-1.95,2.55ZM235.74,105.98l-6.8-5.19,1.95-2.55,6.8,5.19-1.95,2.55ZM222.14,95.6l-6.8-5.19,1.95-2.55,6.8,5.19-1.95,2.55Z"/><path class="cls-2" d="M265.74,160.57l-.37-2.5,3.17-.47.37,2.5-3.17.47ZM264.13,149.6l-1.24-8.46,3.17-.47,1.24,8.46-3.17.47ZM261.64,132.68l-1.24-8.46,3.17-.47,1.24,8.46-3.17.47Z"/><polygon class="cls-7" points="72.78 22.99 63.8 20.53 56.69 26.53 56.25 17.23 48.34 12.32 57.05 9.04 59.28 0 65.1 7.26 74.38 6.59 69.27 14.37 72.78 22.99"/><path class="cls-7" d="M11,107.97c0,3.07-2.46,5.56-5.5,5.56s-5.5-2.49-5.5-5.56,2.46-5.56,5.5-5.56,5.5,2.49,5.5,5.56Z"/><polygon class="cls-7" points="226.53 103.17 216.91 98.04 207.22 103.06 209.13 92.32 201.36 84.66 212.17 83.15 217.05 73.4 221.82 83.21 232.61 84.84 224.75 92.41 226.53 103.17"/><path class="cls-7" d="M267.49,124c0,3.07-2.46,5.56-5.5,5.56s-5.5-2.49-5.5-5.56,2.46-5.56,5.5-5.56,5.5,2.49,5.5,5.56Z"/><path class="cls-7" d="M272.83,160.33c0,3.07-2.46,5.56-5.5,5.56s-5.5-2.49-5.5-5.56,2.46-5.56,5.5-5.56,5.5,2.49,5.5,5.56Z"/></g></svg>