<?xml version="1.0" encoding="UTF-8"?><svg id="_レイヤー_2" xmlns="http://www.w3.org/2000/svg" xmlns:xlink="http://www.w3.org/1999/xlink" viewBox="0 0 367.5 380.07"><defs><style>.cls-1{fill:url(#Gold);}.cls-2{fill:url(#Gold-7);}.cls-3{fill:url(#Gold-6);}.cls-4{fill:url(#Gold-2);}.cls-5{fill:url(#Gold-9);}.cls-6{fill:url(#Gold-4);}.cls-7{fill:url(#Gold-3);}.cls-8{fill:url(#Gold-8);}.cls-9{fill:url(#Gold-5);}.cls-10{fill:#fcff92;}</style><linearGradient id="Gold" x1="83.35" y1="79.77" x2="190.3" y2="79.77" gradientUnits="userSpaceOnUse"><stop offset="0" stop-color="#fbc926"/><stop offset=".25" stop-color="#fffbcc"/><stop offset=".3" stop-color="#f8efba"/><stop offset=".41" stop-color="#e7d18d"/><stop offset=".55" stop-color="#cca246"/><stop offset=".6" stop-color="#c3922e"/><stop offset=".87" stop-color="#eed688"/><stop offset="1" stop-color="#fffbcc"/></linearGradient><linearGradient id="Gold-2" x1="148.84" y1="194.83" x2="182.09" y2="194.83" xlink:href="#Gold"/><linearGradient id="Gold-3" x1="210.54" y1="191.32" x2="221.66" y2="191.32" xlink:href="#Gold"/><linearGradient id="Gold-4" x1="181.17" y1="201.87" x2="212.85" y2="201.87" xlink:href="#Gold"/><linearGradient id="Gold-5" x1="9.83" y1="151.61" x2="140.72" y2="151.61" xlink:href="#Gold"/><linearGradient id="Gold-6" x1="186.93" y1="156.05" x2="209.4" y2="156.05" xlink:href="#Gold"/><linearGradient id="Gold-7" x1="217.99" y1="234.49" x2="269.44" y2="234.49" xlink:href="#Gold"/><linearGradient id="Gold-8" x1="266.46" y1="296.08" x2="346.85" y2="296.08" xlink:href="#Gold"/><linearGradient id="Gold-9" x1="344.23" y1="344.89" x2="360.37" y2="344.89" xlink:href="#Gold"/></defs><g id="_レイヤー_2-2"><path class="cls-1" d="M187.05,143.44l-2.95-3.54,3.24-2.7,2.95,3.54-3.24,2.7ZM176.91,131.25l-7.2-8.65,3.24-2.7,7.2,8.65-3.24,2.7ZM162.52,113.95l-7.2-8.65,3.24-2.7,7.2,8.65-3.24,2.7ZM148.12,96.65l-7.2-8.65,3.24-2.7,7.2,8.65-3.24,2.7ZM133.73,79.35l-7.2-8.65,3.24-2.7,7.2,8.65-3.24,2.7ZM119.34,62.05l-7.2-8.65,3.24-2.7,7.2,8.65-3.24,2.7ZM104.94,44.76l-7.2-8.65,3.24-2.7,7.2,8.65-3.24,2.7ZM90.55,27.46l-7.2-8.65,3.24-2.7,7.2,8.65-3.24,2.7Z"/><polygon class="cls-10" points="100 30.25 88.19 27.02 78.82 34.92 78.25 22.68 67.84 16.22 79.3 11.89 82.23 0 89.89 9.56 102.11 8.67 95.38 18.91 100 30.25"/><path class="cls-10" d="M195.91,142.09c0,4.04-3.24,7.32-7.24,7.32s-7.24-3.28-7.24-7.32,3.24-7.32,7.24-7.32,7.24,3.28,7.24,7.32Z"/><path class="cls-4" d="M181.19,200.41l-10.36-2.25.9-4.12,10.36,2.25-.9,4.12ZM159.84,195.77l-11-2.39.9-4.12,11,2.39-.9,4.12Z"/><path class="cls-7" d="M217.57,205.89l-1.57-6.3,4.09-1.02,1.57,6.3-4.09,1.02ZM213.27,188.68l-2.73-10.92,4.09-1.02,2.73,10.92-4.09,1.02Z"/><path class="cls-6" d="M211.91,207.44l-8.8-2.01.94-4.11,8.8,2.01-.94,4.11ZM192.14,202.92l-10.97-2.51.94-4.11,10.97,2.51-.94,4.11Z"/><path class="cls-10" d="M156.53,191.32c0,4.04-3.24,7.32-7.24,7.32s-7.24-3.28-7.24-7.32,3.24-7.32,7.24-7.32,7.24,3.28,7.24,7.32Z"/><path class="cls-9" d="M138.73,188.04l-9.91-5.32,1.99-3.72,9.91,5.32-1.99,3.72ZM118.9,177.4l-9.91-5.32,1.99-3.72,9.91,5.32-1.99,3.72ZM99.07,166.77l-9.91-5.32,1.99-3.72,9.91,5.32-1.99,3.72ZM79.24,156.13l-9.91-5.32,1.99-3.72,9.91,5.32-1.99,3.72ZM59.41,145.49l-9.91-5.32,1.99-3.72,9.91,5.32-1.99,3.72ZM39.58,134.85l-9.91-5.32,1.99-3.72,9.91,5.32-1.99,3.72ZM19.75,124.21l-9.91-5.32,1.99-3.72,9.91,5.32-1.99,3.72Z"/><path class="cls-3" d="M205.91,171.19l-6.33-9.3,3.49-2.37,6.33,9.3-3.49,2.37ZM193.26,152.58l-6.33-9.3,3.49-2.37,6.33,9.3-3.49,2.37Z"/><path class="cls-10" d="M188.88,198.35c0,4.04-3.24,7.32-7.24,7.32s-7.24-3.28-7.24-7.32,3.24-7.32,7.24-7.32,7.24,3.28,7.24,7.32Z"/><path class="cls-2" d="M266.19,264.94l-5.14-6.21,3.25-2.69,5.14,6.21-3.25,2.69ZM253.87,250.06l-7.18-8.67,3.25-2.69,7.18,8.67-3.25,2.69ZM239.52,232.73l-7.18-8.67,3.25-2.69,7.18,8.67-3.25,2.69ZM225.17,215.39l-7.18-8.67,3.25-2.69,7.18,8.67-3.25,2.69Z"/><path class="cls-8" d="M344.14,330.18l-8.63-7.22,2.71-3.24,8.63,7.22-2.71,3.24ZM326.88,315.74l-8.63-7.22,2.71-3.24,8.63,7.22-2.71,3.24ZM309.62,301.3l-8.63-7.22,2.71-3.24,8.63,7.22-2.71,3.24ZM292.35,286.87l-8.63-7.22,2.71-3.24,8.63,7.22-2.71,3.24ZM275.09,272.43l-8.63-7.22,2.71-3.24,8.63,7.22-2.71,3.24Z"/><path class="cls-5" d="M356.43,361.39l-4.07-10.49,3.93-1.53,4.07,10.49-3.93,1.53ZM348.3,340.41l-4.07-10.49,3.93-1.53,4.07,10.49-3.93,1.53Z"/><polygon class="cls-10" points="283.45 281.84 269.67 275.86 256.93 283.82 258.36 268.86 246.85 259.21 261.51 255.95 267.14 242.02 274.77 254.96 289.76 256 279.81 267.26 283.45 281.84"/><path class="cls-10" d="M226.86,205.38c0,4.04-3.24,7.32-7.24,7.32s-7.24-3.28-7.24-7.32,3.24-7.32,7.24-7.32,7.24,3.28,7.24,7.32Z"/><path class="cls-10" d="M353.44,329.15c0,4.04-3.24,7.32-7.24,7.32s-7.24-3.28-7.24-7.32,3.24-7.32,7.24-7.32,7.24,3.28,7.24,7.32Z"/><path class="cls-10" d="M367.5,372.75c0,4.04-3.24,7.32-7.24,7.32s-7.24-3.28-7.24-7.32,3.24-7.32,7.24-7.32,7.24,3.28,7.24,7.32Z"/><path class="cls-10" d="M219.82,177.25c0,4.04-3.24,7.32-7.24,7.32s-7.24-3.28-7.24-7.32,3.24-7.32,7.24-7.32,7.24,3.28,7.24,7.32Z"/><path class="cls-10" d="M14.48,115.37c0,4.04-3.24,7.32-7.24,7.32s-7.24-3.28-7.24-7.32,3.24-7.32,7.24-7.32,7.24,3.28,7.24,7.32Z"/></g></svg>