<?xml version="1.0" encoding="UTF-8"?><svg id="_レイヤー_2" xmlns="http://www.w3.org/2000/svg" xmlns:xlink="http://www.w3.org/1999/xlink" viewBox="0 0 356.15 381.1"><defs><style>.cls-1{fill:url(#Gold);}.cls-2{fill:url(#Gold-7);}.cls-3{fill:url(#Gold-6);}.cls-4{fill:url(#Gold-2);}.cls-5{fill:url(#Gold-9);}.cls-6{fill:url(#Gold-4);}.cls-7{fill:url(#Gold-3);}.cls-8{fill:url(#Gold-8);}.cls-9{fill:url(#Gold-5);}.cls-10{fill:#fcff92;}</style><linearGradient id="Gold" x1="1098.43" y1="205.15" x2="1103.07" y2="205.15" gradientTransform="translate(-935.25 -322.44) rotate(11.75)" gradientUnits="userSpaceOnUse"><stop offset="0" stop-color="#fbc926"/><stop offset=".25" stop-color="#fffbcc"/><stop offset=".3" stop-color="#f8efba"/><stop offset=".41" stop-color="#e7d18d"/><stop offset=".55" stop-color="#cca246"/><stop offset=".6" stop-color="#c3922e"/><stop offset=".87" stop-color="#eed688"/><stop offset="1" stop-color="#fffbcc"/></linearGradient><linearGradient id="Gold-2" x1="1052.38" y1="247.7" x2="1101.21" y2="247.7" xlink:href="#Gold"/><linearGradient id="Gold-3" x1="1043.23" y1="301.71" x2="1054.89" y2="301.71" xlink:href="#Gold"/><linearGradient id="Gold-4" x1="1044.14" y1="382.49" x2="1132.39" y2="382.49" xlink:href="#Gold"/><linearGradient id="Gold-5" x1="1114.62" y1="443.87" x2="1137.98" y2="443.87" xlink:href="#Gold"/><linearGradient id="Gold-6" x1="1221.09" y1="88.25" x2="1317.55" y2="88.25" xlink:href="#Gold"/><linearGradient id="Gold-7" x1="1100.01" y1="132.38" x2="1222.74" y2="132.38" xlink:href="#Gold"/><linearGradient id="Gold-8" x1="1099.39" y1="185.68" x2="1185.23" y2="185.68" xlink:href="#Gold"/><linearGradient id="Gold-9" x1="1191.69" y1="224.04" x2="1273.44" y2="224.04" xlink:href="#Gold"/></defs><g id="_レイヤー_2-2"><path class="cls-1" d="M94.94,141.18l-4.29-.88,1.55-7.57,4.29.88-1.55,7.57ZM98.83,122.17l-4.29-.88,2.34-11.44,4.29.88-2.34,11.44ZM103.51,99.28l-4.29-.88,2.34-11.44,4.29.88-2.34,11.44ZM108.19,76.4l-4.29-.88,2.34-11.44,4.29.88-2.34,11.44Z"/><path class="cls-4" d="M92.68,142.92l-11.66-.64.24-4.37,11.66.64-.24,4.37ZM69.36,141.64l-11.66-.64.24-4.37,11.66.64-.24,4.37ZM46.04,140.37l-2.01-.11.24-4.37,2.01.11-.24,4.37Z"/><path class="cls-7" d="M18.59,235.79l-4.21-1.2,2.07-7.27,4.21,1.2-2.07,7.27ZM23.86,217.29l-4.21-1.2,3.2-11.23,4.21,1.2-3.2,11.23ZM30.26,194.83l-4.21-1.2,3.2-11.23,4.21,1.2-3.2,11.23ZM36.66,172.36l-4.21-1.2,3.2-11.23,4.21,1.2-3.2,11.23ZM43.06,149.9l-4.21-1.2,3.2-11.23,4.21,1.2-3.2,11.23Z"/><path class="cls-6" d="M86.4,313.7l-7.95-8.56,3.21-2.98,7.95,8.56-3.21,2.98ZM70.51,296.58l-7.95-8.56,3.21-2.98,7.95,8.56-3.21,2.98ZM54.62,279.47l-7.95-8.56,3.21-2.98,7.95,8.56-3.21,2.98ZM38.72,262.35l-7.95-8.56,3.21-2.98,7.95,8.56-3.21,2.98ZM22.83,245.24l-7.95-8.56,3.21-2.98,7.95,8.56-3.21,2.98Z"/><path class="cls-9" d="M63.82,367.7l-3.75-2.25,6.01-10.01,3.75,2.25-6.01,10.01ZM75.85,347.67l-3.75-2.25,6.01-10.01,3.75,2.25-6.01,10.01ZM87.87,327.65l-3.75-2.25,6.01-10.01,3.75,2.25-6.01,10.01Z"/><polygon class="cls-10" points="119.83 74.06 108.39 64.52 94.04 68.54 99.58 54.71 91.32 42.3 106.19 43.3 115.44 31.61 119.09 46.06 133.06 51.24 120.44 59.17 119.83 74.06"/><polygon class="cls-10" points="24.44 251.04 14.63 242.86 2.33 246.31 7.08 234.45 0 223.81 12.75 224.67 20.67 214.65 23.8 227.03 35.78 231.48 24.97 238.28 24.44 251.04"/><path class="cls-10" d="M245.84,36.9c-.86,4.1-4.84,6.75-8.9,5.9-4.06-.85-6.66-4.86-5.81-8.97.86-4.11,4.84-6.75,8.9-5.9,4.06.85,6.66,4.86,5.81,8.97Z"/><path class="cls-10" d="M100.16,142.27c-.85,4.11-4.84,6.75-8.9,5.9-4.06-.85-6.66-4.86-5.81-8.97.85-4.11,4.84-6.75,8.9-5.9,4.06.85,6.66,4.86,5.81,8.97Z"/><path class="cls-10" d="M51.51,139.6c-.85,4.1-4.84,6.75-8.9,5.9-4.06-.84-6.66-4.86-5.81-8.97.86-4.11,4.84-6.75,8.9-5.9,4.06.85,6.66,4.86,5.81,8.97Z"/><path class="cls-10" d="M99.36,318.04c-.85,4.1-4.84,6.75-8.9,5.9-4.06-.84-6.66-4.86-5.81-8.96.85-4.11,4.84-6.75,8.9-5.9,4.06.85,6.66,4.86,5.81,8.97Z"/><path class="cls-10" d="M86.57,343.71c-.85,4.1-4.84,6.75-8.9,5.9-4.06-.85-6.66-4.86-5.81-8.97.85-4.11,4.84-6.75,8.9-5.9,4.06.85,6.66,4.86,5.81,8.97Z"/><path class="cls-10" d="M65.14,375.04c-.85,4.1-4.84,6.75-8.9,5.9-4.06-.85-6.66-4.86-5.81-8.97.85-4.11,4.84-6.75,8.9-5.9,4.06.85,6.66,4.86,5.81,8.97Z"/><path class="cls-3" d="M239.01,37.49l-1.07-4.25,11.32-2.86,1.07,4.25-11.32,2.86ZM261.66,31.78l-1.07-4.25,11.32-2.86,1.07,4.25-11.32,2.86ZM284.31,26.07l-1.07-4.25,11.32-2.86,1.07,4.25-11.32,2.86ZM306.96,20.36l-1.07-4.25,11.32-2.86,1.07,4.25-11.32,2.86ZM329.6,14.65l-1.07-4.25,11.32-2.86,1.07,4.25-11.32,2.86Z"/><path class="cls-2" d="M111.37,54.27l-.57-4.34,11.58-1.52.57,4.34-11.58,1.52ZM134.52,51.23l-.57-4.34,11.58-1.52.57,4.34-11.58,1.52ZM157.68,48.19l-.57-4.34,11.58-1.52.57,4.34-11.58,1.52ZM180.84,45.14l-.57-4.34,11.58-1.52.57,4.34-11.58,1.52ZM204,42.1l-.57-4.34,11.58-1.52.57,4.34-11.58,1.52ZM227.15,39.06l-.57-4.34,11.58-1.52.57,4.34-11.58,1.52Z"/><path class="cls-8" d="M177.74,133.39l-7.59-8.87,3.33-2.85,7.59,8.87-3.33,2.85ZM162.56,115.64l-7.59-8.87,3.33-2.85,7.59,8.87-3.33,2.85ZM147.37,97.89l-7.59-8.87,3.33-2.85,7.59,8.87-3.33,2.85ZM132.19,80.14l-7.59-8.87,3.33-2.85,7.59,8.87-3.33,2.85ZM117.01,62.39l-7.59-8.87,3.33-2.85,7.59,8.87-3.33,2.85Z"/><path class="cls-5" d="M265.36,158.44l-11.43-2.38.89-4.29,11.43,2.38-.89,4.29ZM242.5,153.68l-11.43-2.38.89-4.29,11.43,2.38-.89,4.29ZM219.63,148.92l-11.43-2.38.89-4.29,11.43,2.38-.89,4.29ZM196.76,144.16l-11.43-2.38.89-4.29,11.43,2.38-.89,4.29Z"/><path class="cls-10" d="M355.99,9.12c-.85,4.1-4.84,6.75-8.9,5.9-4.06-.85-6.66-4.86-5.81-8.97.85-4.11,4.84-6.75,8.9-5.9,4.06.85,6.66,4.86,5.81,8.97Z"/><path class="cls-10" d="M192.93,140.7c-.85,4.11-4.84,6.75-8.9,5.9-4.06-.85-6.66-4.86-5.81-8.97.85-4.11,4.84-6.75,8.9-5.9,4.06.84,6.66,4.86,5.81,8.96Z"/><path class="cls-10" d="M277.25,158.24c-.85,4.11-4.84,6.75-8.9,5.9-4.06-.85-6.66-4.86-5.81-8.97.85-4.11,4.84-6.75,8.9-5.9,4.06.85,6.66,4.86,5.81,8.97Z"/></g></svg>