<?xml version="1.0" encoding="UTF-8"?><svg id="_レイヤー_2" xmlns="http://www.w3.org/2000/svg" xmlns:xlink="http://www.w3.org/1999/xlink" viewBox="0 0 359.28 437.21"><defs><style>.cls-1{fill:url(#Gold);}.cls-2{fill:url(#Gold-7);}.cls-3{fill:url(#Gold-6);}.cls-4{fill:url(#Gold-2);}.cls-5{fill:url(#Gold-9);}.cls-6{fill:url(#Gold-4);}.cls-7{fill:url(#Gold-3);}.cls-8{fill:url(#Gold-8);}.cls-9{fill:url(#Gold-5);}.cls-10{fill:#fcff92;}.cls-11{fill:url(#Gold-10);}.cls-12{fill:url(#Gold-11);}.cls-13{fill:url(#Gold-13);}.cls-14{fill:url(#Gold-12);}.cls-15{fill:url(#Gold-14);}</style><linearGradient id="Gold" x1="334.91" y1="72.32" x2="355.32" y2="72.32" gradientUnits="userSpaceOnUse"><stop offset="0" stop-color="#fbc926"/><stop offset=".25" stop-color="#fffbcc"/><stop offset=".3" stop-color="#f8efba"/><stop offset=".41" stop-color="#e7d18d"/><stop offset=".55" stop-color="#cca246"/><stop offset=".6" stop-color="#c3922e"/><stop offset=".87" stop-color="#eed688"/><stop offset="1" stop-color="#fffbcc"/></linearGradient><linearGradient id="Gold-2" x1="208.41" y1="217.85" x2="255.19" y2="217.85" xlink:href="#Gold"/><linearGradient id="Gold-3" x1="251.32" y1="120.56" x2="292.42" y2="120.56" xlink:href="#Gold"/><linearGradient id="Gold-4" x1="291.69" y1="92.85" x2="327.59" y2="92.85" xlink:href="#Gold"/><linearGradient id="Gold-5" x1="327.23" y1="32.34" x2="356.25" y2="32.34" xlink:href="#Gold"/><linearGradient id="Gold-6" x1="294.6" y1="12.53" x2="329.92" y2="12.53" xlink:href="#Gold"/><linearGradient id="Gold-7" x1="262.31" y1="36.24" x2="286.15" y2="36.24" xlink:href="#Gold"/><linearGradient id="Gold-8" x1="259.65" y1="70.1" x2="281.56" y2="70.1" xlink:href="#Gold"/><linearGradient id="Gold-9" x1="206.23" y1="323.98" x2="232.56" y2="323.98" xlink:href="#Gold"/><linearGradient id="Gold-10" x1="228.36" y1="388.41" x2="250.46" y2="388.41" xlink:href="#Gold"/><linearGradient id="Gold-11" x1="128.23" y1="388.62" x2="249.63" y2="388.62" xlink:href="#Gold"/><linearGradient id="Gold-12" x1="108.39" y1="332.74" x2="131.37" y2="332.74" xlink:href="#Gold"/><linearGradient id="Gold-13" x1="57.51" y1="303.18" x2="106.39" y2="303.18" xlink:href="#Gold"/><linearGradient id="Gold-14" x1="7.32" y1="292.03" x2="58.5" y2="292.03" xlink:href="#Gold"/></defs><g id="_レイヤー_2-2"><path class="cls-1" d="M338.87,89.17l-3.96-2.06,5.49-10.55,3.95,2.06-5.49,10.55ZM349.84,68.07l-3.95-2.06,5.49-10.55,3.95,2.06-5.49,10.55Z"/><path class="cls-10" d="M359.04,56.95c-1.05,4.14-5.22,6.65-9.32,5.61-4.09-1.04-6.56-5.24-5.51-9.38,1.05-4.14,5.23-6.65,9.32-5.6,4.09,1.04,6.56,5.24,5.51,9.38Z"/><path class="cls-4" d="M212.7,292.76l-4.29-1.23,3.27-11.43,4.29,1.23-3.27,11.43ZM219.24,269.9l-4.29-1.23,3.27-11.43,4.29,1.23-3.27,11.43ZM225.77,247.04l-4.29-1.23,3.27-11.43,4.29,1.23-3.27,11.43ZM232.31,224.18l-4.29-1.23,3.27-11.43,4.29,1.23-3.27,11.43ZM238.85,201.32l-4.29-1.23,3.27-11.43,4.29,1.23-3.27,11.43ZM245.39,178.46l-4.29-1.23,3.27-11.43,4.29,1.23-3.27,11.43ZM251.92,155.6l-4.29-1.23,3.27-11.43,4.29,1.23-3.27,11.43Z"/><path class="cls-7" d="M254.77,144.97l-3.45-2.82,7.53-9.2,3.45,2.82-7.53,9.2ZM269.83,126.58l-3.45-2.82,7.53-9.2,3.45,2.82-7.53,9.2ZM284.89,108.18l-3.45-2.82,7.53-9.2,3.45,2.82-7.53,9.2Z"/><path class="cls-6" d="M292.45,98.09l-.76-4.39,11.71-2.03.76,4.39-11.71,2.03ZM315.88,94.03l-.76-4.39,11.71-2.03.76,4.39-11.71,2.03Z"/><path class="cls-9" d="M352.25,58.61l-5.27-10.65,4-1.98,5.27,10.65-4,1.98ZM341.71,37.3l-5.27-10.65,4-1.98,5.27,10.65-4,1.98ZM331.17,16l-3.93-7.95,4-1.98,3.93,7.95-4,1.98Z"/><path class="cls-3" d="M295.97,20.12l-1.37-4.24,11.31-3.65,1.37,4.24-11.31,3.65ZM318.6,12.83l-1.37-4.24,11.31-3.65,1.37,4.24-11.31,3.65Z"/><path class="cls-2" d="M265.99,52.21l-3.68-2.52,6.72-9.81,3.68,2.52-6.72,9.81ZM279.43,32.6l-3.68-2.52,6.72-9.81,3.68,2.52-6.72,9.81Z"/><path class="cls-8" d="M277.72,86.6l-6.03-10.25,3.84-2.26,6.03,10.25-3.84,2.26ZM265.67,66.1l-6.02-10.25,3.84-2.26,6.02,10.25-3.84,2.26Z"/><path class="cls-5" d="M228.52,348.7l-2.11-4.5,4.04-1.89,2.11,4.5-4.04,1.89ZM221.37,333.44l-5.05-10.76,4.04-1.89,5.05,10.76-4.04,1.89ZM211.28,311.92l-5.05-10.76,4.04-1.89,5.05,10.76-4.04,1.89Z"/><path class="cls-11" d="M246.1,429.53l-2.53-11.61,4.35-.95,2.53,11.61-4.36.95ZM241.03,406.3l-2.53-11.61,4.36-.95,2.53,11.61-4.36.95ZM235.96,383.07l-2.53-11.61,4.36-.95,2.53,11.61-4.36.95ZM230.9,359.85l-2.53-11.61,4.36-.95,2.53,11.61-4.36.95Z"/><path class="cls-12" d="M247.11,431.32l-9.8-6.73,2.53-3.67,9.8,6.73-2.53,3.67ZM227.52,417.85l-9.8-6.73,2.53-3.67,9.8,6.73-2.53,3.67ZM207.93,404.38l-9.8-6.73,2.52-3.67,9.8,6.73-2.53,3.67ZM188.33,390.91l-9.8-6.73,2.53-3.67,9.8,6.73-2.53,3.67ZM168.74,377.44l-9.8-6.73,2.53-3.67,9.8,6.73-2.53,3.67ZM149.15,363.97l-9.8-6.73,2.53-3.67,9.8,6.73-2.53,3.67ZM129.56,350.5l-1.33-.91,2.53-3.67,1.33.91-2.53,3.67Z"/><path class="cls-14" d="M127.62,348.96l-6.41-10.01,3.75-2.4,6.41,10.01-3.75,2.4ZM114.8,328.93l-6.41-10.01,3.75-2.4,6.41,10.01-3.75,2.4Z"/><path class="cls-13" d="M105.06,312.74l-11.35-3.55,1.33-4.26,11.35,3.55-1.33,4.26ZM82.36,305.64l-11.35-3.55,1.33-4.26,11.35,3.55-1.33,4.26ZM59.67,298.55l-2.16-.68,1.33-4.26,2.16.68-1.33,4.26Z"/><path class="cls-15" d="M57.85,297.95l-11.76-1.73.65-4.41,11.76,1.73-.65,4.41ZM34.32,294.49l-11.76-1.73.65-4.41,11.76,1.73-.65,4.41ZM10.8,291.04l-3.48-.51.65-4.41,3.48.51-.65,4.41Z"/><polygon class="cls-10" points="265.94 164.26 252.56 157.12 239.09 164.1 241.74 149.17 230.95 138.52 245.97 136.43 252.76 122.86 259.39 136.5 274.39 138.77 263.47 149.29 265.94 164.26"/><path class="cls-10" d="M291.72,23.42c-1.05,4.14-5.23,6.65-9.32,5.61-4.1-1.04-6.56-5.24-5.51-9.38,1.05-4.14,5.22-6.65,9.32-5.6,4.09,1.04,6.56,5.24,5.51,9.38Z"/><path class="cls-10" d="M331.13,12.35c-2.59,3.39-7.42,4.06-10.77,1.49-3.36-2.56-3.97-7.39-1.38-10.79,2.59-3.39,7.42-4.06,10.77-1.49,3.36,2.57,3.97,7.39,1.38,10.79Z"/><path class="cls-10" d="M344.3,90.02c-1.05,4.14-5.22,6.65-9.32,5.6-4.09-1.04-6.56-5.24-5.51-9.38,1.05-4.14,5.23-6.65,9.32-5.61,4.1,1.04,6.56,5.24,5.51,9.38Z"/><path class="cls-10" d="M299.48,97.78c-1.05,4.14-5.22,6.65-9.32,5.6-4.09-1.04-6.56-5.24-5.51-9.38,1.05-4.14,5.23-6.65,9.32-5.61,4.09,1.04,6.56,5.24,5.51,9.38Z"/><path class="cls-10" d="M215.9,300.21c0,4.27-3.42,7.73-7.65,7.73s-7.65-3.46-7.65-7.73,3.42-7.73,7.65-7.73,7.65,3.46,7.65,7.73Z"/><ellipse class="cls-10" cx="230.54" cy="347.76" rx="7.65" ry="7.73"/><ellipse class="cls-10" cx="248.37" cy="429.48" rx="7.65" ry="7.73"/><path class="cls-10" d="M137.14,347.76c0,4.27-3.42,7.73-7.65,7.73s-7.65-3.46-7.65-7.73,3.42-7.73,7.65-7.73,7.65,3.46,7.65,7.73Z"/><path class="cls-10" d="M113.37,310.61c0,4.27-3.42,7.73-7.65,7.73s-7.65-3.46-7.65-7.73,3.42-7.73,7.65-7.73,7.65,3.46,7.65,7.73Z"/><path class="cls-10" d="M65.82,295.75c0,4.27-3.42,7.73-7.65,7.73s-7.65-3.46-7.65-7.73,3.42-7.73,7.65-7.73,7.65,3.46,7.65,7.73Z"/><path class="cls-10" d="M15.3,288.32c0,4.27-3.42,7.73-7.65,7.73s-7.65-3.46-7.65-7.73,3.42-7.73,7.65-7.73,7.65,3.46,7.65,7.73Z"/><path class="cls-10" d="M268.98,56.61c-1.05,4.14-5.23,6.65-9.32,5.61-4.09-1.04-6.56-5.24-5.51-9.38,1.05-4.14,5.23-6.65,9.32-5.6,4.09,1.04,6.56,5.24,5.51,9.38Z"/></g></svg>