<?xml version="1.0" encoding="UTF-8"?><svg id="_レイヤー_2" xmlns="http://www.w3.org/2000/svg" xmlns:xlink="http://www.w3.org/1999/xlink" viewBox="0 0 384.1 233.55"><defs><style>.cls-1{fill:url(#Gold);}.cls-2{fill:url(#Gold-6);}.cls-3{fill:url(#Gold-2);}.cls-4{fill:url(#Gold-4);}.cls-5{fill:url(#Gold-3);}.cls-6{fill:url(#Gold-5);}.cls-7{fill:#fcff92;}</style><linearGradient id="Gold" x1="6.08" y1="21" x2="84.27" y2="21" gradientTransform="translate(59.94 -59.86) rotate(60.95)" gradientUnits="userSpaceOnUse"><stop offset="0" stop-color="#fbc926"/><stop offset=".25" stop-color="#fffbcc"/><stop offset=".3" stop-color="#f8efba"/><stop offset=".41" stop-color="#e7d18d"/><stop offset=".55" stop-color="#cca246"/><stop offset=".6" stop-color="#c3922e"/><stop offset=".87" stop-color="#eed688"/><stop offset="1" stop-color="#fffbcc"/></linearGradient><linearGradient id="Gold-2" x1="9.49" y1="85.18" x2="83.82" y2="85.18" gradientTransform="matrix(1,0,0,1,0,0)" xlink:href="#Gold"/><linearGradient id="Gold-3" x1="6.08" y1="149.37" x2="84.27" y2="149.37" gradientTransform="translate(135.47 68.51) rotate(60.95)" xlink:href="#Gold"/><linearGradient id="Gold-4" x1="81.32" y1="71.93" x2="305.52" y2="71.93" gradientTransform="matrix(1,0,0,1,0,0)" xlink:href="#Gold"/><linearGradient id="Gold-5" x1="303.17" y1="150.03" x2="370.2" y2="150.03" gradientTransform="matrix(1,0,0,1,0,0)" xlink:href="#Gold"/><linearGradient id="Gold-6" x1="366.6" y1="200.14" x2="378.59" y2="200.14" gradientTransform="matrix(1,0,0,1,0,0)" xlink:href="#Gold"/></defs><g id="_レイヤー_2-2"><rect class="cls-1" x="77.83" y="18.74" width="6.02" height="4.51" transform="translate(23.22 81.47) rotate(-60.95)"/><path class="cls-3" d="M19.17,136.64l-3.95-2.19,6.22-11.19,3.95,2.19-6.22,11.19ZM31.6,114.26l-3.95-2.19,6.22-11.19,3.95,2.19-6.22,11.19ZM44.04,91.88l-3.95-2.19,6.22-11.19,3.95,2.19-6.22,11.19ZM56.47,69.49l-3.95-2.19,6.22-11.19,3.95,2.19-6.22,11.19ZM68.91,47.11l-3.95-2.19,6.22-11.19,3.95,2.19-6.22,11.19Z"/><rect class="cls-5" x="6.51" y="147.11" width="6.02" height="4.51" transform="translate(-125.68 85.15) rotate(-60.95)"/><path class="cls-4" d="M303.56,127.53l-5.4-2.6,1.96-4.07,5.4,2.6-1.96,4.07ZM287.32,119.7l-10.84-5.23,1.96-4.07,10.84,5.23-1.96,4.07ZM265.64,109.25l-10.84-5.23,1.96-4.07,10.84,5.23-1.96,4.07ZM243.95,98.8l-10.84-5.23,1.96-4.07,10.84,5.23-1.96,4.07ZM222.27,88.34l-10.84-5.23,1.96-4.07,10.84,5.23-1.96,4.07ZM200.58,77.89l-10.84-5.23,1.96-4.07,10.84,5.23-1.96,4.07ZM178.9,67.44l-10.84-5.23,1.96-4.07,10.84,5.23-1.96,4.07ZM157.21,56.99l-10.84-5.23,1.96-4.07,10.84,5.23-1.96,4.07ZM135.53,46.53l-10.84-5.23,1.96-4.07,10.84,5.23-1.96,4.07ZM113.84,36.08l-10.84-5.23,1.96-4.07,10.84,5.23-1.96,4.07ZM92.16,25.63l-10.84-5.23,1.96-4.07,10.84,5.23-1.96,4.07Z"/><path class="cls-6" d="M367.46,176.36l-6.88-5.25,2.74-3.59,6.88,5.25-2.74,3.59ZM351.01,163.8l-9.57-7.3,2.74-3.59,9.57,7.3-2.74,3.59ZM331.88,149.2l-9.57-7.3,2.74-3.59,9.57,7.3-2.74,3.59ZM312.74,134.59l-9.57-7.3,2.74-3.59,9.57,7.3-2.74,3.59Z"/><path class="cls-2" d="M374.12,226.05l-.52-3.52,4.47-.66.52,3.52-4.47.66ZM371.85,210.62l-1.75-11.91,4.47-.66,1.75,11.91-4.47.66ZM368.35,186.8l-1.75-11.91,4.47-.66,1.75,11.91-4.47.66Z"/><polygon class="cls-7" points="102.46 32.36 89.82 28.9 79.81 37.35 79.19 24.26 68.06 17.35 80.32 12.72 83.45 0 91.64 10.23 104.71 9.28 97.52 20.23 102.46 32.36"/><path class="cls-7" d="M15.49,152c0,4.32-3.47,7.83-7.74,7.83s-7.74-3.5-7.74-7.83,3.47-7.83,7.74-7.83,7.74,3.5,7.74,7.83Z"/><polygon class="cls-7" points="318.92 145.24 305.37 138.02 291.73 145.09 294.42 129.97 283.48 119.18 298.69 117.06 305.57 103.33 312.29 117.14 327.47 119.44 316.41 130.09 318.92 145.24"/><path class="cls-7" d="M376.57,174.57c0,4.32-3.47,7.83-7.74,7.83s-7.74-3.5-7.74-7.83,3.47-7.83,7.74-7.83,7.74,3.5,7.74,7.83Z"/><path class="cls-7" d="M384.1,225.72c0,4.32-3.47,7.83-7.74,7.83s-7.74-3.5-7.74-7.83,3.47-7.83,7.74-7.83,7.74,3.5,7.74,7.83Z"/></g></svg>