<?xml version="1.0" encoding="UTF-8"?><svg id="_レイヤー_2" xmlns="http://www.w3.org/2000/svg" xmlns:xlink="http://www.w3.org/1999/xlink" viewBox="0 0 290.2 310.52"><defs><style>.cls-1{fill:url(#Gold);}.cls-2{fill:url(#Gold-7);}.cls-3{fill:url(#Gold-6);}.cls-4{fill:url(#Gold-2);}.cls-5{fill:url(#Gold-9);}.cls-6{fill:url(#Gold-4);}.cls-7{fill:url(#Gold-3);}.cls-8{fill:url(#Gold-8);}.cls-9{fill:url(#Gold-5);}.cls-10{fill:#fcff92;}</style><linearGradient id="Gold" x1="1413.37" y1="136.56" x2="1417.15" y2="136.56" gradientTransform="translate(-1275.76 -338.35) rotate(11.75)" gradientUnits="userSpaceOnUse"><stop offset="0" stop-color="#fbc926"/><stop offset=".25" stop-color="#fffbcc"/><stop offset=".3" stop-color="#f8efba"/><stop offset=".41" stop-color="#e7d18d"/><stop offset=".55" stop-color="#cca246"/><stop offset=".6" stop-color="#c3922e"/><stop offset=".87" stop-color="#eed688"/><stop offset="1" stop-color="#fffbcc"/></linearGradient><linearGradient id="Gold-2" x1="1375.85" y1="171.22" x2="1415.64" y2="171.22" xlink:href="#Gold"/><linearGradient id="Gold-3" x1="1368.39" y1="215.23" x2="1377.9" y2="215.23" xlink:href="#Gold"/><linearGradient id="Gold-4" x1="1369.14" y1="281.05" x2="1441.04" y2="281.05" xlink:href="#Gold"/><linearGradient id="Gold-5" x1="1426.56" y1="331.07" x2="1445.6" y2="331.07" xlink:href="#Gold"/><linearGradient id="Gold-6" x1="1513.32" y1="41.3" x2="1591.91" y2="41.3" xlink:href="#Gold"/><linearGradient id="Gold-7" x1="1414.65" y1="77.26" x2="1514.66" y2="77.26" xlink:href="#Gold"/><linearGradient id="Gold-8" x1="1414.15" y1="120.69" x2="1484.1" y2="120.69" xlink:href="#Gold"/><linearGradient id="Gold-9" x1="1489.36" y1="151.94" x2="1555.97" y2="151.94" xlink:href="#Gold"/></defs><g id="_レイヤー_2-2"><path class="cls-1" d="M77.36,115.03l-3.5-.72,1.26-6.17,3.5.72-1.26,6.17ZM80.53,99.54l-3.5-.72,1.91-9.32,3.5.72-1.91,9.32ZM84.34,80.9l-3.5-.72,1.91-9.32,3.5.72-1.91,9.32ZM88.16,62.25l-3.5-.72,1.91-9.32,3.5.72-1.91,9.32Z"/><path class="cls-4" d="M75.52,116.46l-9.5-.52.2-3.56,9.5.52-.2,3.56ZM56.51,115.41l-9.5-.52.2-3.56,9.5.52-.2,3.56ZM37.51,114.37l-1.63-.09.2-3.56,1.63.09-.2,3.56Z"/><path class="cls-7" d="M15.15,192.13l-3.43-.98,1.69-5.93,3.43.98-1.69,5.93ZM19.44,177.05l-3.43-.98,2.61-9.15,3.43.98-2.61,9.15ZM24.66,158.75l-3.43-.98,2.61-9.15,3.43.98-2.61,9.15ZM29.87,140.44l-3.43-.98,2.61-9.15,3.43.98-2.61,9.15ZM35.08,122.14l-3.43-.98,2.61-9.15,3.43.98-2.61,9.15Z"/><path class="cls-6" d="M70.4,255.6l-6.48-6.97,2.61-2.43,6.48,6.97-2.61,2.43ZM57.45,241.66l-6.48-6.97,2.61-2.43,6.48,6.97-2.61,2.43ZM44.5,227.71l-6.48-6.97,2.61-2.43,6.48,6.97-2.61,2.43ZM31.55,213.77l-6.48-6.97,2.61-2.43,6.48,6.97-2.61,2.43ZM18.6,199.83l-6.48-6.97,2.61-2.43,6.48,6.97-2.61,2.43Z"/><path class="cls-9" d="M52.01,299.61l-3.06-1.84,4.9-8.16,3.06,1.84-4.9,8.16ZM61.8,283.29l-3.06-1.84,4.9-8.16,3.06,1.84-4.9,8.16ZM71.6,266.98l-3.06-1.84,4.9-8.16,3.06,1.84-4.9,8.16Z"/><polygon class="cls-10" points="97.64 60.35 88.32 52.57 76.63 55.85 81.14 44.58 74.41 34.47 86.53 35.28 94.06 25.76 97.03 37.53 108.42 41.75 98.14 48.22 97.64 60.35"/><polygon class="cls-10" points="19.91 204.56 11.92 197.89 1.9 200.7 5.77 191.03 0 182.37 10.39 183.06 16.85 174.9 19.4 184.99 29.15 188.61 20.34 194.15 19.91 204.56"/><path class="cls-10" d="M200.31,30.06c-.7,3.34-3.94,5.5-7.26,4.81-3.31-.69-5.43-3.96-4.73-7.31.7-3.35,3.94-5.5,7.26-4.81,3.31.69,5.43,3.96,4.73,7.3Z"/><path class="cls-10" d="M81.61,115.92c-.7,3.35-3.94,5.5-7.25,4.81-3.31-.69-5.43-3.96-4.73-7.3.7-3.35,3.94-5.5,7.25-4.81,3.31.69,5.43,3.96,4.73,7.3Z"/><path class="cls-10" d="M41.97,113.75c-.7,3.34-3.94,5.5-7.25,4.81-3.31-.69-5.43-3.96-4.73-7.3.7-3.35,3.94-5.5,7.26-4.81,3.31.69,5.43,3.96,4.73,7.3Z"/><path class="cls-10" d="M80.96,259.15c-.7,3.34-3.94,5.5-7.26,4.81-3.31-.69-5.43-3.96-4.73-7.3.7-3.35,3.95-5.5,7.25-4.81,3.31.69,5.43,3.96,4.73,7.3Z"/><path class="cls-10" d="M70.54,280.06c-.7,3.34-3.94,5.5-7.25,4.81-3.31-.69-5.43-3.96-4.73-7.31.7-3.35,3.94-5.5,7.25-4.81,3.31.69,5.43,3.96,4.73,7.31Z"/><path class="cls-10" d="M53.08,305.59c-.7,3.34-3.94,5.5-7.26,4.81-3.31-.69-5.43-3.96-4.73-7.31.7-3.35,3.94-5.5,7.25-4.81,3.31.69,5.43,3.96,4.73,7.3Z"/><path class="cls-3" d="M194.75,30.55l-.87-3.46,9.23-2.33.87,3.46-9.23,2.33ZM213.21,25.89l-.87-3.46,9.23-2.33.87,3.46-9.23,2.33ZM231.66,21.24l-.87-3.46,9.23-2.33.87,3.46-9.23,2.33ZM250.11,16.59l-.87-3.46,9.23-2.33.87,3.46-9.23,2.33ZM268.57,11.94l-.87-3.46,9.23-2.33.87,3.46-9.23,2.33Z"/><path class="cls-2" d="M90.74,44.22l-.46-3.54,9.43-1.24.46,3.54-9.43,1.24ZM109.61,41.74l-.46-3.54,9.43-1.24.46,3.54-9.43,1.24ZM128.48,39.26l-.46-3.54,9.43-1.24.46,3.54-9.43,1.24ZM147.35,36.78l-.46-3.54,9.43-1.24.46,3.54-9.43,1.24ZM166.22,34.31l-.46-3.54,9.43-1.24.46,3.54-9.43,1.24ZM185.09,31.83l-.46-3.54,9.43-1.24.46,3.54-9.43,1.24Z"/><path class="cls-8" d="M144.83,108.68l-6.19-7.23,2.71-2.32,6.19,7.23-2.71,2.32ZM132.46,94.22l-6.19-7.23,2.71-2.32,6.19,7.23-2.71,2.32ZM120.08,79.76l-6.19-7.23,2.71-2.32,6.19,7.23-2.71,2.32ZM107.71,65.3l-6.19-7.23,2.71-2.32,6.19,7.23-2.71,2.32ZM95.34,50.84l-6.19-7.23,2.71-2.32,6.19,7.23-2.71,2.32Z"/><path class="cls-5" d="M216.22,129.1l-9.32-1.94.73-3.49,9.32,1.94-.73,3.49ZM197.59,125.22l-9.32-1.94.73-3.49,9.32,1.94-.73,3.49ZM178.96,121.34l-9.32-1.94.73-3.49,9.32,1.94-.73,3.49ZM160.33,117.47l-9.32-1.94.73-3.49,9.32,1.94-.73,3.49Z"/><path class="cls-10" d="M290.06,7.43c-.7,3.34-3.94,5.5-7.26,4.81-3.31-.69-5.43-3.96-4.73-7.31.7-3.35,3.94-5.5,7.25-4.81,3.31.69,5.43,3.96,4.73,7.3Z"/><path class="cls-10" d="M157.2,114.64c-.7,3.35-3.94,5.5-7.25,4.81-3.31-.69-5.43-3.96-4.73-7.3.7-3.35,3.94-5.5,7.25-4.81,3.31.69,5.43,3.96,4.73,7.3Z"/><path class="cls-10" d="M225.9,128.94c-.7,3.34-3.94,5.5-7.26,4.81-3.31-.69-5.43-3.96-4.73-7.31.7-3.35,3.94-5.5,7.25-4.81,3.31.69,5.43,3.96,4.73,7.3Z"/></g></svg>