<?xml version="1.0" encoding="UTF-8"?><svg id="_レイヤー_2" xmlns="http://www.w3.org/2000/svg" xmlns:xlink="http://www.w3.org/1999/xlink" viewBox="0 0 253.73 354.69"><defs><style>.cls-1{fill:url(#Gold);}.cls-2{fill:url(#Gold-2);}.cls-3{fill:url(#Gold-4);}.cls-4{fill:url(#Gold-3);}.cls-5{fill:#fcff92;}</style><linearGradient id="Gold" x1="16.43" y1="87.33" x2="69.43" y2="87.33" gradientUnits="userSpaceOnUse"><stop offset="0" stop-color="#fbc926"/><stop offset=".25" stop-color="#fffbcc"/><stop offset=".3" stop-color="#f8efba"/><stop offset=".41" stop-color="#e7d18d"/><stop offset=".55" stop-color="#cca246"/><stop offset=".6" stop-color="#c3922e"/><stop offset=".87" stop-color="#eed688"/><stop offset="1" stop-color="#fffbcc"/></linearGradient><linearGradient id="Gold-2" x1="65.72" y1="185.11" x2="79.39" y2="185.11" xlink:href="#Gold"/><linearGradient id="Gold-3" x1="25.6" y1="273.81" x2="79.55" y2="273.81" xlink:href="#Gold"/><linearGradient id="Gold-4" x1="76.68" y1="285.6" x2="248.26" y2="285.6" xlink:href="#Gold"/></defs><g id="_レイヤー_2-2"><path class="cls-1" d="M65.84,150.16l-3.8-9.56,3.58-1.43,3.8,9.56-3.58,1.43ZM58.24,131.05l-3.8-9.56,3.58-1.43,3.8,9.56-3.58,1.43ZM50.64,111.94l-3.8-9.56,3.58-1.43,3.8,9.56-3.58,1.43ZM43.04,92.82l-3.8-9.56,3.58-1.43,3.8,9.56-3.58,1.43ZM35.44,73.71l-3.8-9.56,3.58-1.43,3.8,9.56-3.58,1.43ZM27.83,54.6l-3.8-9.56,3.58-1.43,3.8,9.56-3.58,1.43ZM20.23,35.49l-3.8-9.56,3.58-1.43,3.8,9.56-3.58,1.43Z"/><path class="cls-2" d="M75.57,221.03l-1.41-10.19,3.82-.53,1.41,10.19-3.82.53ZM72.76,200.65l-1.41-10.19,3.82-.53,1.41,10.19-3.82.53ZM69.95,180.28l-1.41-10.19,3.82-.53,1.41,10.19-3.82.53ZM67.13,159.9l-1.41-10.19,3.82-.53,1.41,10.19-3.82.53Z"/><path class="cls-4" d="M29.05,325.29l-3.45-1.72,4.59-9.2,3.45,1.72-4.59,9.2ZM38.23,306.88l-3.45-1.72,4.59-9.2,3.45,1.72-4.59,9.2ZM47.41,288.48l-3.45-1.72,4.59-9.2,3.45,1.72-4.59,9.2ZM56.59,270.07l-3.45-1.72,4.59-9.2,3.45,1.72-4.59,9.2ZM65.77,251.66l-3.45-1.72,4.59-9.2,3.45,1.72-4.59,9.2ZM74.96,233.26l-3.45-1.72,4.59-9.2,3.45,1.72-4.59,9.2Z"/><path class="cls-3" d="M245.97,349.55l-3.73-2.75,2.29-3.1,3.73,2.75-2.29,3.1ZM233.96,340.7l-8.28-6.1,2.29-3.1,8.28,6.1-2.29,3.1ZM217.4,328.49l-8.28-6.1,2.29-3.1,8.28,6.1-2.29,3.1ZM200.85,316.29l-8.28-6.1,2.29-3.1,8.28,6.1-2.29,3.1ZM184.29,304.08l-8.28-6.1,2.29-3.1,8.28,6.1-2.29,3.1ZM167.73,291.88l-8.28-6.1,2.29-3.1,8.28,6.1-2.29,3.1ZM151.18,279.67l-8.28-6.1,2.29-3.1,8.28,6.1-2.29,3.1ZM134.62,267.47l-8.28-6.1,2.29-3.1,8.28,6.1-2.29,3.1ZM118.07,255.26l-8.28-6.1,2.29-3.1,8.28,6.1-2.29,3.1ZM101.51,243.05l-8.28-6.1,2.29-3.1,8.28,6.1-2.29,3.1ZM84.95,230.85l-8.28-6.1,2.29-3.1,8.28,6.1-2.29,3.1Z"/><polygon class="cls-5" points="29.39 27.65 18.59 24.69 10.04 31.91 9.51 20.73 0 14.83 10.47 10.87 13.15 0 20.15 8.74 31.31 7.93 25.17 17.28 29.39 27.65"/><polygon class="cls-5" points="89.08 238.18 78.29 233.55 68.36 239.82 69.42 228.12 60.4 220.61 71.85 218.01 76.2 207.11 82.21 217.2 93.93 217.96 86.19 226.8 89.08 238.18"/><path class="cls-5" d="M30.28,331.44c.18,3.69-2.64,6.82-6.29,7-3.65.18-6.75-2.67-6.93-6.36-.18-3.69,2.64-6.82,6.29-7,3.65-.18,6.75,2.67,6.93,6.36Z"/><path class="cls-5" d="M74.24,149.13c.18,3.69-2.64,6.82-6.29,7-3.65.18-6.75-2.67-6.93-6.36-.18-3.69,2.64-6.82,6.29-7,3.65-.18,6.75,2.67,6.93,6.36Z"/><path class="cls-5" d="M253.72,347.68c.18,3.69-2.64,6.82-6.29,7-3.65.18-6.75-2.67-6.93-6.36-.18-3.69,2.64-6.82,6.29-7,3.65-.18,6.75,2.67,6.93,6.36Z"/></g></svg>