<?xml version="1.0" encoding="UTF-8"?><svg id="_レイヤー_2" xmlns="http://www.w3.org/2000/svg" xmlns:xlink="http://www.w3.org/1999/xlink" viewBox="0 0 308.59 314.46"><defs><style>.cls-1{fill:url(#Gold);}.cls-2{fill:url(#Gold-7);}.cls-3{fill:url(#Gold-6);}.cls-4{fill:url(#Gold-2);}.cls-5{fill:url(#Gold-9);}.cls-6{fill:url(#Gold-4);}.cls-7{fill:url(#Gold-3);}.cls-8{fill:url(#Gold-8);}.cls-9{fill:url(#Gold-5);}.cls-10{fill:#fcff92;}.cls-11{fill:url(#Gold-10);}.cls-12{fill:url(#Gold-16);}.cls-13{fill:url(#Gold-11);}.cls-14{fill:url(#Gold-13);}.cls-15{fill:url(#Gold-15);}.cls-16{fill:url(#Gold-17);}.cls-17{fill:url(#Gold-18);}.cls-18{fill:url(#Gold-12);}.cls-19{fill:url(#Gold-14);}</style><linearGradient id="Gold" x1="140.85" y1="104.94" x2="165.71" y2="104.94" gradientUnits="userSpaceOnUse"><stop offset="0" stop-color="#fbc926"/><stop offset=".25" stop-color="#fffbcc"/><stop offset=".3" stop-color="#f8efba"/><stop offset=".41" stop-color="#e7d18d"/><stop offset=".55" stop-color="#cca246"/><stop offset=".6" stop-color="#c3922e"/><stop offset=".87" stop-color="#eed688"/><stop offset="1" stop-color="#fffbcc"/></linearGradient><linearGradient id="Gold-2" x1="210.45" y1="97.42" x2="252.26" y2="97.42" xlink:href="#Gold"/><linearGradient id="Gold-3" x1="211.91" y1="40.41" x2="243.41" y2="40.41" xlink:href="#Gold"/><linearGradient id="Gold-4" x1="60.13" y1="29.52" x2="102.21" y2="29.52" xlink:href="#Gold"/><linearGradient id="Gold-5" x1="100.61" y1="31.86" x2="136.66" y2="31.86" xlink:href="#Gold"/><linearGradient id="Gold-6" x1="163.3" y1="94.55" x2="212.96" y2="94.55" xlink:href="#Gold"/><linearGradient id="Gold-7" x1="125.24" y1="142.46" x2="165.87" y2="142.46" xlink:href="#Gold"/><linearGradient id="Gold-8" x1="94.51" y1="155.51" x2="125.68" y2="155.51" xlink:href="#Gold"/><linearGradient id="Gold-9" x1="94.51" y1="118.33" x2="134.35" y2="118.33" xlink:href="#Gold"/><linearGradient id="Gold-10" x1="38.77" y1="139.87" x2="84.47" y2="139.87" xlink:href="#Gold"/><linearGradient id="Gold-11" x1="4.3" y1="175.06" x2="33.99" y2="175.06" xlink:href="#Gold"/><linearGradient id="Gold-12" x1="4.85" y1="247.76" x2="100.9" y2="247.76" xlink:href="#Gold"/><linearGradient id="Gold-13" x1="111.14" y1="268.7" x2="157.67" y2="268.7" xlink:href="#Gold"/><linearGradient id="Gold-14" x1="101.3" y1="296.26" x2="163.66" y2="296.26" xlink:href="#Gold"/><linearGradient id="Gold-15" x1="250.07" y1="113.64" x2="303.51" y2="113.64" xlink:href="#Gold"/><linearGradient id="Gold-16" x1="249.19" y1="155.62" x2="258.38" y2="155.62" xlink:href="#Gold"/><linearGradient id="Gold-17" x1="255.77" y1="194.95" x2="297" y2="194.95" xlink:href="#Gold"/><linearGradient id="Gold-18" x1="100.07" y1="58.21" x2="132.57" y2="58.21" xlink:href="#Gold"/></defs><g id="_レイヤー_2-2"><path class="cls-10" d="M258.24,124.26c0,3.3-2.65,5.98-5.92,5.98s-5.92-2.68-5.92-5.98,2.65-5.98,5.92-5.98,5.92,2.68,5.92,5.98Z"/><path class="cls-1" d="M163.79,114.05l-7.65-5.12,1.92-2.87,7.65,5.12-1.92,2.87ZM148.5,103.81l-7.65-5.12,1.92-2.87,7.65,5.12-1.92,2.87Z"/><path class="cls-4" d="M249.56,123.22l-4.86-6.15,2.71-2.14,4.86,6.15-2.71,2.14ZM238.98,109.85l-5.71-7.22,2.71-2.14,5.71,7.22-2.71,2.14ZM227.57,95.42l-5.71-7.22,2.71-2.14,5.71,7.22-2.71,2.14ZM216.16,80.98l-5.71-7.22,2.71-2.14,5.71,7.22-2.71,2.14Z"/><path class="cls-10" d="M251.08,5.98c0,3.3-2.65,5.98-5.92,5.98s-5.92-2.68-5.92-5.98,2.65-5.98,5.92-5.98,5.92,2.68,5.92,5.98Z"/><path class="cls-7" d="M215.01,70.07l-3.1-1.52,4.06-8.26,3.1,1.52-4.06,8.26ZM223.13,53.56l-3.1-1.52,4.06-8.26,3.1,1.52-4.06,8.26ZM231.24,37.04l-3.1-1.52,4.06-8.26,3.1,1.52-4.06,8.26ZM239.35,20.52l-3.1-1.52,4.06-8.26,3.1,1.52-4.06,8.26Z"/><path class="cls-6" d="M100.56,42l-8.09-4.39,1.65-3.03,8.09,4.39-1.65,3.03ZM84.39,33.23l-8.09-4.39,1.65-3.03,8.09,4.39-1.65,3.03ZM68.21,24.45l-8.09-4.39,1.65-3.03,8.09,4.39-1.65,3.03Z"/><path class="cls-9" d="M102.16,42.03l-1.54-3.09,8.23-4.11,1.54,3.09-8.23,4.11ZM118.62,33.8l-1.54-3.09,8.23-4.11,1.54,3.09-8.23,4.11ZM135.08,25.57l-1.54-3.09,1.59-.79,1.54,3.09-1.59.79Z"/><path class="cls-3" d="M165.65,117.67l-2.34-2.53,6.76-6.24,2.34,2.53-6.76,6.24ZM179.17,105.18l-2.34-2.53,6.76-6.24,2.34,2.53-6.76,6.24ZM192.68,92.7l-2.34-2.53,6.76-6.24,2.34,2.53-6.76,6.24ZM206.2,80.21l-2.34-2.53,6.76-6.24,2.34,2.53-6.76,6.24Z"/><path class="cls-2" d="M128.03,169.53l-2.79-2.03,5.41-7.45,2.79,2.03-5.41,7.45ZM138.84,154.64l-2.79-2.03,5.41-7.45,2.79,2.03-5.41,7.45ZM149.65,139.75l-2.79-2.03,5.41-7.45,2.79,2.03-5.41,7.45ZM160.47,124.86l-2.79-2.03,5.41-7.45,2.79,2.03-5.41,7.45Z"/><path class="cls-8" d="M123.1,172.75l-6.11-6.88,2.58-2.29,6.11,6.88-2.58,2.29ZM110.88,158.99l-6.11-6.88,2.58-2.29,6.11,6.88-2.58,2.29ZM98.67,145.23l-4.15-4.68,2.58-2.29,4.15,4.68-2.58,2.29Z"/><path class="cls-5" d="M97.1,140.55l-2.59-2.29,6.09-6.89,2.59,2.29-6.09,6.89ZM109.28,126.76l-2.59-2.29,6.09-6.89,2.59,2.29-6.09,6.89ZM121.47,112.97l-2.59-2.29,6.09-6.89,2.59,2.29-6.09,6.89ZM133.66,99.18l-2.59-2.29.69-.78,2.59,2.29-.69.78Z"/><path class="cls-11" d="M84.47,141.63h-9.14v-3.52h9.14v3.52ZM66.19,141.63h-9.14v-3.52h9.14v3.52ZM47.91,141.63h-9.14v-3.52h9.14v3.52Z"/><path class="cls-13" d="M7.54,211.32l-3.23-1.2.85-2.3,3.23,1.2-.85,2.3ZM11.59,200.39l-3.23-1.2,3.2-8.63,3.23,1.2-3.2,8.63ZM17.99,183.14l-3.23-1.2,3.2-8.63,3.23,1.2-3.2,8.63ZM24.39,165.88l-3.23-1.2,3.2-8.63,3.23,1.2-3.2,8.63ZM30.79,148.63l-3.23-1.2,3.2-8.63,3.23,1.2-3.2,8.63Z"/><path class="cls-18" d="M98.77,286.16l-7.22-5.7,2.14-2.71,7.22,5.7-2.14,2.71ZM84.32,274.76l-7.22-5.7,2.14-2.71,7.22,5.7-2.14,2.71ZM69.87,263.36l-7.22-5.7,2.14-2.71,7.22,5.7-2.14,2.71ZM55.42,251.96l-7.22-5.7,2.14-2.71,7.22,5.7-2.14,2.71ZM40.97,240.56l-7.22-5.7,2.14-2.71,7.22,5.7-2.14,2.71ZM26.52,229.17l-7.22-5.7,2.14-2.71,7.22,5.7-2.14,2.71ZM12.08,217.77l-7.22-5.7,2.14-2.71,7.22,5.7-2.14,2.71Z"/><path class="cls-14" d="M113.29,287.78l-2.15-2.7,7.19-5.74,2.15,2.7-7.19,5.74ZM127.67,276.29l-2.15-2.7,7.19-5.74,2.15,2.7-7.19,5.74ZM142.05,264.8l-2.15-2.7,7.19-5.74,2.15,2.7-7.19,5.74ZM156.42,253.32l-2.15-2.7,1.25-1,2.15,2.7-1.25,1Z"/><path class="cls-19" d="M162.6,307.78l-8.76-2.82,1.06-3.28,8.76,2.82-1.06,3.28ZM145.08,302.13l-8.76-2.82,1.06-3.28,8.76,2.82-1.06,3.28ZM127.57,296.49l-8.76-2.82,1.06-3.28,8.76,2.82-1.06,3.28ZM110.05,290.84l-8.76-2.82,1.06-3.28,8.76,2.82-1.06,3.28Z"/><path class="cls-15" d="M251.75,129.64l-1.69-3.01,8.03-4.5,1.69,3.01-8.03,4.5ZM267.81,120.65l-1.69-3.01,8.03-4.5,1.69,3.01-8.03,4.5ZM283.86,111.66l-1.69-3.01,8.03-4.5,1.69,3.01-8.03,4.5ZM299.92,102.66l-1.69-3.01,3.59-2.01,1.69,3.01-3.59,2.01Z"/><path class="cls-12" d="M254.94,183.29v-.07s3.42-.36,3.42-.36v.07s-3.42.36-3.42.36ZM253.98,174.07l-.96-9.15,3.43-.36.96,9.15-3.43.36ZM252.06,155.77l-.96-9.15,3.43-.36.96,9.15-3.43.36ZM250.15,137.47l-.96-9.15,3.43-.36.96,9.15-3.43.36Z"/><path class="cls-16" d="M295.22,208.26l-7.89-4.73,1.78-2.96,7.89,4.73-1.78,2.96ZM279.44,198.79l-7.89-4.73,1.78-2.96,7.89,4.73-1.78,2.96ZM263.66,189.32l-7.89-4.73,1.78-2.96,7.89,4.73-1.78,2.96Z"/><polygon class="cls-10" points="118.44 302.17 108.08 296.64 97.66 302.05 99.71 290.49 91.35 282.24 102.98 280.62 108.23 270.13 113.37 280.68 124.97 282.44 116.52 290.58 118.44 302.17"/><polygon class="cls-10" points="151.79 108.94 141.43 103.41 131.01 108.82 133.06 97.26 124.7 89.01 136.33 87.39 141.59 76.9 146.72 87.45 158.33 89.21 149.88 97.35 151.79 108.94"/><ellipse class="cls-10" cx="135.89" cy="23.24" rx="5.92" ry="5.98"/><ellipse class="cls-10" cx="211.8" cy="72.69" rx="5.92" ry="5.98"/><ellipse class="cls-10" cx="302.67" cy="99.15" rx="5.92" ry="5.98"/><path class="cls-10" d="M308.59,210.72c0,3.3-2.65,5.98-5.92,5.98s-5.92-2.68-5.92-5.98,2.65-5.98,5.92-5.98,5.92,2.68,5.92,5.98Z"/><path class="cls-10" d="M262.58,183.11c0,3.3-2.65,5.98-5.92,5.98s-5.92-2.68-5.92-5.98,2.65-5.98,5.92-5.98,5.92,2.68,5.92,5.98Z"/><ellipse class="cls-10" cx="32.37" cy="139.4" rx="5.92" ry="5.98"/><path class="cls-10" d="M101.55,139.4c0,3.3-2.65,5.98-5.92,5.98s-5.92-2.68-5.92-5.98,2.65-5.98,5.92-5.98,5.92,2.68,5.92,5.98Z"/><ellipse class="cls-10" cx="124.39" cy="171.61" rx="5.92" ry="5.98"/><ellipse class="cls-10" cx="164.64" cy="114.1" rx="5.92" ry="5.98"/><path class="cls-10" d="M11.84,210.72c0,3.3-2.65,5.98-5.92,5.98s-5.92-2.68-5.92-5.98,2.65-5.98,5.92-5.98,5.92,2.68,5.92,5.98Z"/><path class="cls-10" d="M162.51,250.97c0,3.3-2.65,5.98-5.92,5.98s-5.92-2.68-5.92-5.98,2.65-5.98,5.92-5.98,5.92,2.68,5.92,5.98Z"/><path class="cls-10" d="M176.32,308.48c0,3.3-2.65,5.98-5.92,5.98s-5.92-2.68-5.92-5.98,2.65-5.98,5.92-5.98,5.92,2.68,5.92,5.98Z"/><path class="cls-10" d="M67.05,17.48c0,3.3-2.65,5.98-5.92,5.98s-5.92-2.68-5.92-5.98,2.65-5.98,5.92-5.98,5.92,2.68,5.92,5.98Z"/><path class="cls-17" d="M129.95,76.83l-5.98-7,2.62-2.24,5.98,7-2.62,2.24ZM118,62.83l-5.98-7,2.62-2.24,5.98,7-2.62,2.24ZM106.05,48.84l-5.98-7,2.62-2.24,5.98,7-2.62,2.24Z"/><path class="cls-10" d="M107.31,40.49c0,3.3-2.65,5.98-5.92,5.98s-5.92-2.68-5.92-5.98,2.65-5.98,5.92-5.98,5.92,2.68,5.92,5.98Z"/></g></svg>