<?xml version="1.0" encoding="UTF-8"?><svg id="_レイヤー_2" xmlns="http://www.w3.org/2000/svg" xmlns:xlink="http://www.w3.org/1999/xlink" viewBox="0 0 297.82 282.73"><defs><style>.cls-1{fill:url(#Gold);}.cls-2{fill:url(#Gold-7);}.cls-3{fill:url(#Gold-6);}.cls-4{fill:url(#Gold-2);}.cls-5{fill:url(#Gold-9);}.cls-6{fill:url(#Gold-4);}.cls-7{fill:url(#Gold-3);}.cls-8{fill:url(#Gold-8);}.cls-9{fill:url(#Gold-5);}.cls-10{fill:#fcff92;}.cls-11{fill:url(#Gold-10);}.cls-12{fill:url(#Gold-11);}</style><linearGradient id="Gold" x1="16.15" y1="259.31" x2="94.1" y2="259.31" gradientUnits="userSpaceOnUse"><stop offset="0" stop-color="#fbc926"/><stop offset=".25" stop-color="#fffbcc"/><stop offset=".3" stop-color="#f8efba"/><stop offset=".41" stop-color="#e7d18d"/><stop offset=".55" stop-color="#cca246"/><stop offset=".6" stop-color="#c3922e"/><stop offset=".87" stop-color="#eed688"/><stop offset="1" stop-color="#fffbcc"/></linearGradient><linearGradient id="Gold-2" x1="4.21" y1="222.75" x2="35.96" y2="222.75" xlink:href="#Gold"/><linearGradient id="Gold-3" x1="33.79" y1="142.16" x2="197.91" y2="142.16" xlink:href="#Gold"/><linearGradient id="Gold-4" x1="254.61" y1="174.71" x2="282.79" y2="174.71" xlink:href="#Gold"/><linearGradient id="Gold-5" x1="93.33" y1="235.72" x2="281.3" y2="235.72" xlink:href="#Gold"/><linearGradient id="Gold-6" x1="185.67" y1="7.48" x2="242.63" y2="7.48" gradientTransform="translate(69.98 -161.99) rotate(43.15)" xlink:href="#Gold"/><linearGradient id="Gold-7" x1="189.67" y1="31.53" x2="241.76" y2="31.53" xlink:href="#Gold"/><linearGradient id="Gold-8" x1="185.66" y1="55.58" x2="242.63" y2="55.58" gradientTransform="translate(89 -113.89) rotate(43.15)" xlink:href="#Gold"/><linearGradient id="Gold-9" x1="185.15" y1="86.38" x2="199.06" y2="86.38" xlink:href="#Gold"/><linearGradient id="Gold-10" x1="197.07" y1="121.1" x2="256.57" y2="121.1" xlink:href="#Gold"/><linearGradient id="Gold-11" x1="240.47" y1="19.2" x2="279.44" y2="19.2" xlink:href="#Gold"/></defs><g id="_レイヤー_2-2"><path class="cls-1" d="M17.35,275.27l-1.2-3.2,8.53-3.19,1.2,3.2-8.53,3.19ZM34.4,268.89l-1.2-3.2,8.53-3.19,1.2,3.2-8.53,3.19ZM51.46,262.5l-1.2-3.2,8.53-3.19,1.2,3.2-8.53,3.19ZM68.52,256.12l-1.2-3.2,8.53-3.19,1.2,3.2-8.53,3.19ZM85.57,249.73l-1.2-3.2,8.53-3.19,1.2,3.2-8.53,3.19Z"/><path class="cls-4" d="M7.51,277.25l-3.3-.87,2.32-8.81,3.3.87-2.32,8.81ZM12.14,259.64l-3.3-.87,2.32-8.81,3.3.87-2.32,8.81ZM16.78,242.02l-3.3-.87,2.32-8.81,3.3.87-2.32,8.81ZM21.41,224.41l-3.3-.87,2.32-8.81,3.3.87-2.32,8.81ZM26.05,206.8l-3.3-.87,2.32-8.81,3.3.87-2.32,8.81ZM30.68,189.19l-3.3-.87,2.32-8.81,3.3.87-2.32,8.81ZM35.32,171.58l-3.3-.87.65-2.46,3.3.87-.65,2.46Z"/><path class="cls-7" d="M34.84,170.31l-1.06-3.25,8.66-2.82,1.06,3.25-8.66,2.82ZM52.16,164.67l-1.06-3.25,8.66-2.82,1.06,3.25-8.66,2.82ZM69.48,159.04l-1.06-3.25,8.66-2.82,1.06,3.25-8.66,2.82ZM86.79,153.4l-1.06-3.25,8.66-2.82,1.06,3.25-8.66,2.82ZM104.11,147.77l-1.06-3.25,8.66-2.82,1.06,3.25-8.66,2.82ZM121.43,142.14l-1.06-3.25,8.66-2.82,1.06,3.25-8.66,2.82ZM138.75,136.5l-1.06-3.25,8.66-2.82,1.06,3.25-8.66,2.82ZM156.07,130.87l-1.06-3.25,8.66-2.82,1.06,3.25-8.66,2.82ZM173.38,125.23l-1.06-3.25,8.66-2.82,1.06,3.25-8.66,2.82ZM190.7,119.6l-1.06-3.25,7.21-2.35,1.06,3.25-7.21,2.35Z"/><path class="cls-10" d="M99.36,244.94c0,3.27-2.62,5.92-5.86,5.92s-5.86-2.65-5.86-5.92,2.62-5.92,5.86-5.92,5.86,2.65,5.86,5.92Z"/><path class="cls-10" d="M40.17,168.68c0,3.27-2.62,5.92-5.86,5.92s-5.86-2.65-5.86-5.92,2.62-5.92,5.86-5.92,5.86,2.65,5.86,5.92Z"/><path class="cls-10" d="M11.72,276.81c0,3.27-2.62,5.92-5.86,5.92s-5.86-2.65-5.86-5.92,2.62-5.92,5.86-5.92,5.86,2.65,5.86,5.92Z"/><path class="cls-6" d="M279.48,223.27l-2.1-8.11,3.31-.85,2.1,8.11-3.31.85ZM275.11,206.34l-2.28-8.82,3.31-.85,2.28,8.82-3.31.85ZM270.55,188.71l-2.28-8.82,3.31-.85,2.28,8.82-3.31.85ZM266,171.08l-2.28-8.82,3.31-.85,2.28,8.82-3.31.85ZM261.44,153.45l-2.28-8.82,3.31-.85,2.28,8.82-3.31.85ZM256.89,135.81l-2.28-8.82,3.31-.85,2.28,8.82-3.31.85Z"/><path class="cls-9" d="M93.67,246.64l-.33-3.4,6.4-.63.33,3.4-6.4.63ZM109.13,245.12l-.33-3.4,9.06-.89.33,3.4-9.06.89ZM127.25,243.34l-.33-3.4,9.06-.89.33,3.4-9.06.89ZM145.37,241.56l-.33-3.4,9.06-.89.33,3.4-9.06.89ZM163.5,239.78l-.33-3.4,9.06-.89.33,3.4-9.06.89ZM181.62,237.99l-.33-3.4,9.06-.89.33,3.4-9.06.89ZM199.75,236.21l-.33-3.4,9.06-.89.33,3.4-9.06.89ZM217.87,234.43l-.33-3.4,9.06-.89.33,3.4-9.06.89ZM235.99,232.65l-.33-3.4,9.06-.89.33,3.4-9.06.89ZM254.12,230.87l-.33-3.4,9.06-.89.33,3.4-9.06.89ZM272.24,229.08l-.33-3.4,9.06-.89.33,3.4-9.06.89Z"/><polygon class="cls-10" points="291.35 238.7 281.1 233.23 270.78 238.58 272.81 227.14 264.54 218.98 276.05 217.38 281.25 206.99 286.33 217.44 297.82 219.17 289.45 227.23 291.35 238.7"/><rect class="cls-3" x="237.53" y="5.77" width="4.55" height="3.41" transform="translate(59.75 166.04) rotate(-43.15)"/><path class="cls-2" d="M198.18,48.84l-2.34-2.49,6.86-6.43,2.34,2.49-6.86,6.43ZM211.89,35.99l-2.34-2.49,6.86-6.43,2.34,2.49-6.86,6.43ZM225.6,23.14l-2.34-2.49,6.86-6.43,2.34,2.49-6.86,6.43Z"/><rect class="cls-8" x="186.22" y="53.88" width="4.55" height="3.41" transform="translate(12.97 143.96) rotate(-43.15)"/><path class="cls-5" d="M195.7,115.93l-.85-4.72,3.36-.61.85,4.72-3.36.61ZM193.24,102.25l-1.62-8.96,3.36-.61,1.62,8.96-3.36.61ZM190,84.33l-1.62-8.96,3.36-.61,1.62,8.96-3.36.61ZM186.77,66.4l-1.62-8.96,3.36-.61,1.62,8.96-3.36.61Z"/><path class="cls-11" d="M255.95,128.25l-5.16-.96.62-3.36,5.16.96-.62,3.36ZM241.83,125.63l-8.95-1.66.62-3.36,8.95,1.66-.62,3.36ZM223.93,122.3l-8.95-1.66.62-3.36,8.95,1.66-.62,3.36ZM206.02,118.97l-8.95-1.66.62-3.36,8.95,1.66-.62,3.36Z"/><polygon class="cls-10" points="209.54 125.98 199.98 123.36 192.41 129.76 191.94 119.85 183.52 114.63 192.79 111.12 195.17 101.5 201.36 109.24 211.25 108.52 205.8 116.8 209.54 125.98"/><path class="cls-10" d="M262.12,126.57c0,3.27-2.62,5.92-5.86,5.92s-5.86-2.65-5.86-5.92,2.62-5.92,5.86-5.92,5.86,2.65,5.86,5.92Z"/><path class="cls-12" d="M277.45,33.87l-7.4-5.31,1.99-2.77,7.4,5.31-1.99,2.77ZM262.66,23.24l-7.4-5.31,1.99-2.77,7.4,5.31-1.99,2.77ZM247.87,12.62l-7.4-5.31,1.99-2.77,7.4,5.31-1.99,2.77Z"/><path class="cls-10" d="M292.85,36.65c0,3.27-2.62,5.92-5.86,5.92s-5.86-2.65-5.86-5.92,2.62-5.92,5.86-5.92,5.86,2.65,5.86,5.92Z"/><path class="cls-10" d="M247.33,5.92c0,3.27-2.62,5.92-5.86,5.92s-5.86-2.65-5.86-5.92,2.62-5.92,5.86-5.92,5.86,2.65,5.86,5.92Z"/><path class="cls-10" d="M192.69,57.14c0,3.27-2.62,5.92-5.86,5.92s-5.86-2.65-5.86-5.92,2.62-5.92,5.86-5.92,5.86,2.65,5.86,5.92Z"/></g></svg>