<?xml version="1.0" encoding="UTF-8"?><svg id="_レイヤー_2" xmlns="http://www.w3.org/2000/svg" xmlns:xlink="http://www.w3.org/1999/xlink" viewBox="0 0 332.63 344"><defs><style>.cls-1{fill:url(#Gold);}.cls-2{fill:url(#Gold-7);}.cls-3{fill:url(#Gold-6);}.cls-4{fill:url(#Gold-2);}.cls-5{fill:url(#Gold-9);}.cls-6{fill:url(#Gold-4);}.cls-7{fill:url(#Gold-3);}.cls-8{fill:url(#Gold-8);}.cls-9{fill:url(#Gold-5);}.cls-10{fill:#fcff92;}</style><linearGradient id="Gold" x1="75.44" y1="72.2" x2="172.24" y2="72.2" gradientUnits="userSpaceOnUse"><stop offset="0" stop-color="#fbc926"/><stop offset=".25" stop-color="#fffbcc"/><stop offset=".3" stop-color="#f8efba"/><stop offset=".41" stop-color="#e7d18d"/><stop offset=".55" stop-color="#cca246"/><stop offset=".6" stop-color="#c3922e"/><stop offset=".87" stop-color="#eed688"/><stop offset="1" stop-color="#fffbcc"/></linearGradient><linearGradient id="Gold-2" x1="134.72" y1="176.34" x2="164.81" y2="176.34" xlink:href="#Gold"/><linearGradient id="Gold-3" x1="190.56" y1="173.16" x2="200.63" y2="173.16" xlink:href="#Gold"/><linearGradient id="Gold-4" x1="163.98" y1="182.71" x2="192.65" y2="182.71" xlink:href="#Gold"/><linearGradient id="Gold-5" x1="8.9" y1="137.22" x2="127.37" y2="137.22" xlink:href="#Gold"/><linearGradient id="Gold-6" x1="169.19" y1="141.24" x2="189.53" y2="141.24" xlink:href="#Gold"/><linearGradient id="Gold-7" x1="197.3" y1="212.23" x2="243.87" y2="212.23" xlink:href="#Gold"/><linearGradient id="Gold-8" x1="241.17" y1="267.98" x2="313.93" y2="267.98" xlink:href="#Gold"/><linearGradient id="Gold-9" x1="311.56" y1="312.16" x2="326.17" y2="312.16" xlink:href="#Gold"/></defs><g id="_レイヤー_2-2"><path class="cls-1" d="M169.3,129.83l-2.67-3.21,2.94-2.44,2.67,3.21-2.94,2.44ZM160.12,118.79l-6.51-7.83,2.94-2.44,6.51,7.83-2.94,2.44ZM147.09,103.14l-6.51-7.83,2.94-2.44,6.51,7.83-2.94,2.44ZM134.07,87.48l-6.51-7.83,2.94-2.44,6.51,7.83-2.94,2.44ZM121.04,71.82l-6.51-7.83,2.94-2.44,6.51,7.83-2.94,2.44ZM108.01,56.17l-6.51-7.83,2.94-2.44,6.51,7.83-2.94,2.44ZM94.98,40.51l-6.51-7.83,2.94-2.44,6.51,7.83-2.94,2.44ZM81.96,24.85l-6.51-7.83,2.94-2.44,6.51,7.83-2.94,2.44Z"/><polygon class="cls-10" points="90.51 27.38 79.82 24.45 71.34 31.6 70.82 20.53 61.41 14.68 71.78 10.76 74.43 0 81.36 8.65 92.42 7.85 86.33 17.11 90.51 27.38"/><path class="cls-10" d="M177.32,128.61c0,3.66-2.93,6.62-6.55,6.62s-6.55-2.96-6.55-6.62,2.93-6.62,6.55-6.62,6.55,2.97,6.55,6.62Z"/><path class="cls-4" d="M164,181.39l-9.38-2.04.81-3.73,9.38,2.04-.81,3.73ZM144.67,177.19l-9.95-2.16.81-3.73,9.95,2.16-.81,3.73Z"/><path class="cls-7" d="M196.92,186.36l-1.43-5.7,3.71-.93,1.43,5.7-3.71.93ZM193.03,170.78l-2.47-9.88,3.71-.93,2.47,9.88-3.71.93Z"/><path class="cls-6" d="M191.8,187.75l-7.96-1.82.85-3.72,7.96,1.82-.85,3.72ZM173.9,183.66l-9.93-2.27.85-3.72,9.93,2.27-.85,3.72Z"/><path class="cls-10" d="M141.68,173.16c0,3.66-2.93,6.62-6.55,6.62s-6.55-2.96-6.55-6.62,2.93-6.62,6.55-6.62,6.55,2.96,6.55,6.62Z"/><path class="cls-9" d="M125.56,170.2l-8.97-4.81,1.81-3.37,8.97,4.81-1.81,3.37ZM107.61,160.57l-8.97-4.81,1.81-3.37,8.97,4.81-1.81,3.37ZM89.66,150.94l-8.97-4.81,1.81-3.37,8.97,4.81-1.81,3.37ZM71.72,141.31l-8.97-4.81,1.81-3.37,8.97,4.81-1.81,3.37ZM53.77,131.68l-8.97-4.81,1.81-3.37,8.97,4.81-1.81,3.37ZM35.82,122.05l-8.97-4.81,1.81-3.37,8.97,4.81-1.81,3.37ZM17.87,112.42l-8.97-4.81,1.81-3.37,8.97,4.81-1.81,3.37Z"/><path class="cls-3" d="M186.37,154.95l-5.73-8.42,3.16-2.15,5.73,8.42-3.16,2.15ZM174.92,138.1l-5.73-8.42,3.16-2.15,5.73,8.42-3.16,2.15Z"/><path class="cls-10" d="M170.96,179.53c0,3.66-2.93,6.62-6.55,6.62s-6.55-2.96-6.55-6.62,2.93-6.62,6.55-6.62,6.55,2.96,6.55,6.62Z"/><path class="cls-2" d="M240.93,239.79l-4.65-5.62,2.94-2.44,4.65,5.62-2.94,2.44ZM229.78,226.33l-6.5-7.84,2.94-2.44,6.5,7.84-2.94,2.44ZM216.79,210.64l-6.5-7.84,2.94-2.44,6.5,7.84-2.94,2.44ZM203.8,194.95l-6.5-7.84,2.94-2.44,6.5,7.84-2.94,2.44Z"/><path class="cls-8" d="M311.48,298.85l-7.81-6.53,2.45-2.93,7.81,6.53-2.45,2.93ZM295.86,285.78l-7.81-6.53,2.45-2.93,7.81,6.53-2.45,2.93ZM280.23,272.71l-7.81-6.53,2.45-2.93,7.81,6.53-2.45,2.93ZM264.61,259.64l-7.81-6.53,2.45-2.93,7.81,6.53-2.45,2.93ZM248.99,246.57l-7.81-6.53,2.45-2.93,7.81,6.53-2.45,2.93Z"/><path class="cls-5" d="M322.61,327.09l-3.68-9.5,3.56-1.38,3.68,9.5-3.56,1.38ZM315.24,308.1l-3.68-9.5,3.56-1.38,3.68,9.5-3.56,1.38Z"/><polygon class="cls-10" points="256.55 255.09 244.07 249.68 232.54 256.88 233.84 243.35 223.42 234.61 236.69 231.66 241.79 219.05 248.7 230.76 262.26 231.71 253.26 241.9 256.55 255.09"/><path class="cls-10" d="M205.33,185.89c0,3.66-2.93,6.62-6.55,6.62s-6.55-2.97-6.55-6.62,2.93-6.62,6.55-6.62,6.55,2.96,6.55,6.62Z"/><path class="cls-10" d="M319.9,297.92c0,3.66-2.93,6.62-6.55,6.62s-6.55-2.96-6.55-6.62,2.93-6.62,6.55-6.62,6.55,2.97,6.55,6.62Z"/><path class="cls-10" d="M332.63,337.38c0,3.66-2.93,6.62-6.55,6.62s-6.55-2.96-6.55-6.62,2.93-6.62,6.55-6.62,6.55,2.96,6.55,6.62Z"/><path class="cls-10" d="M198.96,160.43c0,3.66-2.93,6.62-6.55,6.62s-6.55-2.96-6.55-6.62,2.93-6.62,6.55-6.62,6.55,2.96,6.55,6.62Z"/><path class="cls-10" d="M13.1,104.42c0,3.66-2.93,6.62-6.55,6.62s-6.55-2.97-6.55-6.62,2.93-6.62,6.55-6.62,6.55,2.96,6.55,6.62Z"/></g></svg>