<?xml version="1.0" encoding="UTF-8"?><svg id="_レイヤー_2" xmlns="http://www.w3.org/2000/svg" xmlns:xlink="http://www.w3.org/1999/xlink" viewBox="0 0 318.48 340.79"><defs><style>.cls-1{fill:url(#Gold);}.cls-2{fill:url(#Gold-7);}.cls-3{fill:url(#Gold-6);}.cls-4{fill:url(#Gold-2);}.cls-5{fill:url(#Gold-9);}.cls-6{fill:url(#Gold-4);}.cls-7{fill:url(#Gold-3);}.cls-8{fill:url(#Gold-8);}.cls-9{fill:url(#Gold-5);}.cls-10{fill:#fcff92;}</style><linearGradient id="Gold" x1="-725.08" y1="383.65" x2="-720.93" y2="383.65" gradientTransform="translate(875.93 -136.54) rotate(11.75)" gradientUnits="userSpaceOnUse"><stop offset="0" stop-color="#fbc926"/><stop offset=".25" stop-color="#fffbcc"/><stop offset=".3" stop-color="#f8efba"/><stop offset=".41" stop-color="#e7d18d"/><stop offset=".55" stop-color="#cca246"/><stop offset=".6" stop-color="#c3922e"/><stop offset=".87" stop-color="#eed688"/><stop offset="1" stop-color="#fffbcc"/></linearGradient><linearGradient id="Gold-2" x1="-766.26" y1="421.7" x2="-722.6" y2="421.7" xlink:href="#Gold"/><linearGradient id="Gold-3" x1="-774.45" y1="469.99" x2="-764.01" y2="469.99" xlink:href="#Gold"/><linearGradient id="Gold-4" x1="-773.63" y1="542.23" x2="-694.71" y2="542.23" xlink:href="#Gold"/><linearGradient id="Gold-5" x1="-710.61" y1="597.12" x2="-689.71" y2="597.12" xlink:href="#Gold"/><linearGradient id="Gold-6" x1="-615.39" y1="279.11" x2="-529.14" y2="279.11" xlink:href="#Gold"/><linearGradient id="Gold-7" x1="-723.67" y1="318.57" x2="-613.92" y2="318.57" xlink:href="#Gold"/><linearGradient id="Gold-8" x1="-724.23" y1="366.23" x2="-647.47" y2="366.23" xlink:href="#Gold"/><linearGradient id="Gold-9" x1="-641.69" y1="400.54" x2="-568.58" y2="400.54" xlink:href="#Gold"/></defs><g id="_レイヤー_2-2"><path class="cls-1" d="M84.9,126.24l-3.84-.78,1.38-6.77,3.84.78-1.38,6.77ZM88.38,109.25l-3.84-.78,2.09-10.23,3.84.78-2.09,10.23ZM92.56,88.78l-3.84-.78,2.09-10.23,3.84.78-2.09,10.23ZM96.75,68.32l-3.84-.78,2.09-10.23,3.84.78-2.09,10.23Z"/><path class="cls-4" d="M82.88,127.81l-10.43-.57.21-3.91,10.43.57-.21,3.91ZM62.02,126.66l-10.43-.57.21-3.91,10.43.57-.21,3.91ZM41.17,125.52l-1.79-.1.22-3.91,1.79.1-.22,3.91Z"/><path class="cls-7" d="M16.62,210.85l-3.77-1.07,1.85-6.5,3.77,1.07-1.85,6.5ZM21.34,194.31l-3.77-1.07,2.86-10.04,3.77,1.07-2.86,10.04ZM27.06,174.22l-3.77-1.07,2.86-10.04,3.77,1.07-2.86,10.04ZM32.78,154.13l-3.77-1.07,2.86-10.04,3.77,1.07-2.86,10.04ZM38.5,134.05l-3.77-1.07,2.86-10.04,3.77,1.07-2.86,10.04Z"/><path class="cls-6" d="M77.26,280.52l-7.11-7.65,2.87-2.67,7.11,7.65-2.87,2.67ZM63.05,265.21l-7.11-7.65,2.87-2.67,7.11,7.65-2.87,2.67ZM48.84,249.91l-7.11-7.65,2.87-2.67,7.11,7.65-2.87,2.67ZM34.63,234.61l-7.11-7.65,2.87-2.67,7.11,7.65-2.87,2.67ZM20.41,219.3l-7.11-7.65,2.87-2.67,7.11,7.65-2.87,2.67Z"/><path class="cls-9" d="M57.07,328.81l-3.36-2.02,5.38-8.95,3.36,2.02-5.38,8.95ZM67.83,310.9l-3.36-2.02,5.38-8.95,3.36,2.02-5.38,8.95ZM78.58,293l-3.36-2.02,5.38-8.95,3.36,2.02-5.38,8.95Z"/><polygon class="cls-10" points="107.16 66.23 96.92 57.7 84.09 61.29 89.04 48.92 81.66 37.83 94.96 38.72 103.23 28.27 106.49 41.19 118.98 45.82 107.7 52.92 107.16 66.23"/><polygon class="cls-10" points="21.86 224.49 13.08 217.18 2.08 220.26 6.33 209.65 0 200.14 11.4 200.9 18.49 191.95 21.29 203.02 32 206.99 22.33 213.08 21.86 224.49"/><path class="cls-10" d="M219.84,33c-.77,3.67-4.33,6.03-7.96,5.28-3.63-.76-5.96-4.35-5.2-8.02.77-3.67,4.33-6.03,7.96-5.28,3.63.76,5.96,4.34,5.2,8.02Z"/><path class="cls-10" d="M89.56,127.22c-.76,3.67-4.33,6.04-7.96,5.28-3.63-.76-5.96-4.35-5.19-8.02.76-3.67,4.33-6.04,7.96-5.28,3.63.76,5.96,4.35,5.2,8.02Z"/><path class="cls-10" d="M46.06,124.83c-.76,3.67-4.33,6.04-7.96,5.28-3.63-.75-5.96-4.35-5.2-8.02.77-3.67,4.33-6.03,7.96-5.28,3.63.76,5.96,4.35,5.19,8.02Z"/><path class="cls-10" d="M88.86,284.41c-.76,3.67-4.33,6.04-7.96,5.28-3.63-.75-5.96-4.35-5.19-8.02.76-3.67,4.33-6.04,7.96-5.28,3.63.76,5.96,4.35,5.2,8.02Z"/><path class="cls-10" d="M77.41,307.36c-.76,3.67-4.33,6.03-7.96,5.28-3.63-.76-5.96-4.35-5.19-8.02.76-3.67,4.33-6.03,7.96-5.28,3.63.76,5.96,4.35,5.2,8.02Z"/><path class="cls-10" d="M58.25,335.37c-.76,3.67-4.33,6.03-7.96,5.28-3.63-.76-5.96-4.35-5.19-8.02.76-3.67,4.33-6.04,7.96-5.28,3.63.76,5.96,4.34,5.19,8.02Z"/><path class="cls-3" d="M213.73,33.52l-.96-3.8,10.13-2.55.96,3.8-10.13,2.55ZM233.99,28.42l-.96-3.8,10.13-2.55.96,3.8-10.13,2.55ZM254.24,23.31l-.96-3.8,10.13-2.55.96,3.8-10.13,2.55ZM274.49,18.21l-.96-3.8,10.13-2.55.96,3.8-10.13,2.55ZM294.74,13.1l-.96-3.8,10.13-2.55.96,3.8-10.13,2.55Z"/><path class="cls-2" d="M99.59,48.53l-.51-3.88,10.35-1.36.51,3.88-10.35,1.36ZM120.3,45.81l-.51-3.88,10.35-1.36.51,3.88-10.35,1.36ZM141,43.09l-.51-3.88,10.35-1.36.51,3.88-10.35,1.36ZM161.71,40.37l-.51-3.88,10.35-1.36.51,3.88-10.35,1.36ZM182.42,37.65l-.51-3.88,10.35-1.36.51,3.88-10.35,1.36ZM203.13,34.93l-.51-3.88,10.35-1.36.51,3.88-10.35,1.36Z"/><path class="cls-8" d="M158.94,119.28l-6.79-7.94,2.98-2.55,6.79,7.94-2.98,2.55ZM145.36,103.41l-6.79-7.94,2.98-2.55,6.79,7.94-2.98,2.55ZM131.79,87.54l-6.79-7.94,2.98-2.55,6.79,7.94-2.98,2.55ZM118.21,71.67l-6.79-7.94,2.98-2.55,6.79,7.94-2.98,2.55ZM104.63,55.8l-6.79-7.94,2.98-2.55,6.79,7.94-2.98,2.55Z"/><path class="cls-5" d="M237.3,141.68l-10.22-2.13.8-3.83,10.22,2.13-.8,3.83ZM216.85,137.43l-10.22-2.13.8-3.83,10.22,2.13-.8,3.83ZM196.4,133.17l-10.22-2.13.8-3.83,10.22,2.13-.8,3.83ZM175.95,128.92l-10.22-2.13.8-3.83,10.22,2.13-.8,3.83Z"/><path class="cls-10" d="M318.33,8.16c-.76,3.67-4.33,6.04-7.96,5.28-3.63-.76-5.96-4.35-5.19-8.02.76-3.67,4.33-6.04,7.96-5.28,3.63.76,5.96,4.35,5.19,8.02Z"/><path class="cls-10" d="M172.52,125.81c-.76,3.67-4.33,6.04-7.96,5.28-3.63-.76-5.96-4.35-5.19-8.02.76-3.67,4.33-6.04,7.96-5.28,3.63.75,5.96,4.34,5.2,8.02Z"/><path class="cls-10" d="M247.92,141.51c-.76,3.67-4.33,6.04-7.96,5.28-3.63-.76-5.96-4.35-5.19-8.02.76-3.67,4.33-6.04,7.96-5.28,3.63.76,5.96,4.35,5.19,8.02Z"/></g></svg>