<?xml version="1.0" encoding="UTF-8"?><svg id="_レイヤー_2" xmlns="http://www.w3.org/2000/svg" xmlns:xlink="http://www.w3.org/1999/xlink" viewBox="0 0 247.49 278.18"><defs><style>.cls-1{fill:url(#Gold);}.cls-2{fill:url(#Gold-7);}.cls-3{fill:url(#Gold-6);}.cls-4{fill:url(#Gold-2);}.cls-5{fill:url(#Gold-9);}.cls-6{fill:url(#Gold-4);}.cls-7{fill:url(#Gold-3);}.cls-8{fill:url(#Gold-8);}.cls-9{fill:url(#Gold-5);}.cls-10{fill:#fcff92;}</style><linearGradient id="Gold" x1="226.36" y1="45.18" x2="232.66" y2="45.18" gradientUnits="userSpaceOnUse"><stop offset="0" stop-color="#fbc926"/><stop offset=".25" stop-color="#fffbcc"/><stop offset=".3" stop-color="#f8efba"/><stop offset=".41" stop-color="#e7d18d"/><stop offset=".55" stop-color="#cca246"/><stop offset=".6" stop-color="#c3922e"/><stop offset=".87" stop-color="#eed688"/><stop offset="1" stop-color="#fffbcc"/></linearGradient><linearGradient id="Gold-2" x1="205.37" y1="149.2" x2="229.72" y2="149.2" xlink:href="#Gold"/><linearGradient id="Gold-3" x1="197.1" y1="251.54" x2="208.08" y2="251.54" xlink:href="#Gold"/><linearGradient id="Gold-4" x1="97.52" y1="269.59" x2="196.44" y2="269.59" xlink:href="#Gold"/><linearGradient id="Gold-5" x1="24.19" y1="246.69" x2="96.05" y2="246.69" xlink:href="#Gold"/><linearGradient id="Gold-6" x1="15.39" y1="208.4" x2="52.42" y2="208.4" xlink:href="#Gold"/><linearGradient id="Gold-7" x1="75.38" y1="168.95" x2="128.76" y2="168.95" xlink:href="#Gold"/><linearGradient id="Gold-8" x1="126.87" y1="110.52" x2="226.72" y2="110.52" xlink:href="#Gold"/><linearGradient id="Gold-9" x1="50.58" y1="188.34" x2="75.87" y2="188.34" xlink:href="#Gold"/></defs><g id="_レイヤー_2-2"><path class="cls-1" d="M229.72,64.57l-3.36-.26.2-2.68,3.36.26-.2,2.68ZM230.61,52.93l-3.36-.26.68-8.96,3.36.26-.68,8.96ZM231.98,35l-3.36-.26.68-8.96,3.36.26-.68,8.96Z"/><path class="cls-4" d="M208.71,234.16l-3.35-.41,1.11-8.92,3.35.41-1.11,8.92ZM210.92,216.32l-3.35-.41,1.11-8.92,3.35.41-1.11,8.92ZM213.13,198.48l-3.35-.41,1.11-8.92,3.35.41-1.11,8.92ZM215.35,180.63l-3.35-.41,1.11-8.92,3.35.41-1.11,8.92ZM217.56,162.79l-3.35-.41,1.11-8.92,3.35.41-1.11,8.92ZM219.77,144.95l-3.35-.41,1.11-8.92,3.35.41-1.11,8.92ZM221.98,127.1l-3.35-.41,1.11-8.92,3.35.41-1.11,8.92ZM224.19,109.26l-3.35-.41,1.11-8.92,3.35.41-1.11,8.92ZM226.4,91.42l-3.35-.41,1.11-8.92,3.35.41-1.11,8.92ZM228.61,73.57l-3.35-.41,1.11-8.92,3.35.41-1.11,8.92Z"/><path class="cls-7" d="M200.33,264.94l-3.23-.97,2.58-8.61,3.23.97-2.58,8.61ZM205.49,247.72l-3.23-.97,2.58-8.61,3.23.97-2.58,8.61Z"/><path class="cls-6" d="M196.25,274.02l-8.98-.5.19-3.37,8.98.5-.19,3.37ZM178.3,273.02l-8.98-.5.19-3.37,8.98.5-.19,3.37ZM160.35,272.02l-8.98-.5.19-3.37,8.98.5-.19,3.37ZM142.4,271.03l-8.98-.5.19-3.37,8.98.5-.19,3.37ZM124.44,270.03l-8.98-.5.19-3.37,8.98.5-.19,3.37ZM106.49,269.03l-8.98-.5.19-3.37,8.98.5-.19,3.37Z"/><path class="cls-9" d="M94.38,268.18l-7.81-4.46,1.67-2.93,7.81,4.46-1.67,2.93ZM78.76,259.27l-7.81-4.46,1.67-2.93,7.81,4.46-1.67,2.93ZM63.14,250.36l-7.81-4.46,1.67-2.93,7.81,4.46-1.67,2.93ZM47.53,241.45l-7.81-4.46,1.67-2.93,7.81,4.46-1.67,2.93ZM31.91,232.53l-7.72-4.41,1.67-2.93,7.72,4.41-1.67,2.93Z"/><path class="cls-3" d="M17.46,223.32l-2.07-2.66,7.1-5.52,2.07,2.66-7.1,5.52ZM31.65,212.28l-2.07-2.66,7.1-5.52,2.07,2.66-7.1,5.52ZM45.84,201.24l-2.07-2.66,6.58-5.12,2.07,2.66-6.58,5.12Z"/><path class="cls-2" d="M76.83,182.83l-1.45-3.04,8.12-3.86,1.45,3.04-8.12,3.86ZM93.07,175.1l-1.45-3.04,8.12-3.86,1.45,3.04-8.12,3.86ZM109.3,167.37l-1.45-3.04,8.12-3.86,1.45,3.04-8.12,3.86ZM125.53,159.65l-1.45-3.04,3.22-1.53,1.45,3.04-3.22,1.53Z"/><path class="cls-8" d="M129.19,157.81l-2.32-2.45,6.53-6.17,2.32,2.45-6.53,6.17ZM142.26,145.47l-2.32-2.45,6.53-6.17,2.32,2.45-6.53,6.17ZM155.33,133.12l-2.32-2.45,6.53-6.17,2.32,2.45-6.53,6.17ZM168.4,120.77l-2.32-2.45,6.53-6.17,2.32,2.45-6.54,6.17ZM181.47,108.42l-2.32-2.45,6.53-6.17,2.32,2.45-6.53,6.17ZM194.54,96.08l-2.32-2.45,6.54-6.17,2.32,2.45-6.53,6.17ZM207.61,83.73l-2.32-2.45,6.53-6.17,2.32,2.45-6.53,6.17ZM220.67,71.38l-2.32-2.45,6.05-5.71,2.32,2.45-6.05,5.71Z"/><path class="cls-5" d="M52.19,196.28l-1.61-2.96,7.89-4.3,1.61,2.96-7.89,4.3ZM67.98,187.67l-1.61-2.96,7.89-4.3,1.61,2.96-7.89,4.3Z"/><polygon class="cls-10" points="241.1 31.3 230.98 25.91 220.8 31.19 222.8 19.89 214.63 11.84 225.99 10.26 231.13 0 236.15 10.32 247.49 12.03 239.23 19.99 241.1 31.3"/><polygon class="cls-10" points="26.47 238.07 16.35 232.68 6.16 237.95 8.17 226.66 0 218.61 11.36 217.02 16.5 206.77 21.51 217.08 32.85 218.8 24.59 226.76 26.47 238.07"/><path class="cls-10" d="M231.35,64.44c0,3.23-2.59,5.85-5.78,5.85s-5.78-2.62-5.78-5.85,2.59-5.85,5.78-5.85,5.78,2.62,5.78,5.85Z"/><path class="cls-10" d="M131.34,156.59c0,3.23-2.59,5.85-5.78,5.85s-5.78-2.62-5.78-5.85,2.59-5.85,5.78-5.85,5.78,2.62,5.78,5.85Z"/><ellipse class="cls-10" cx="51.38" cy="194.8" rx="5.78" ry="5.85"/><path class="cls-10" d="M81.89,181.31c0,3.23-2.59,5.85-5.78,5.85s-5.78-2.62-5.78-5.85,2.59-5.85,5.78-5.85,5.78,2.62,5.78,5.85Z"/><path class="cls-10" d="M101,266.72c0,3.23-2.59,5.85-5.78,5.85s-5.78-2.62-5.78-5.85,2.59-5.85,5.78-5.85,5.78,2.62,5.78,5.85Z"/><path class="cls-10" d="M202.13,272.33c0,3.23-2.59,5.85-5.78,5.85s-5.78-2.62-5.78-5.85,2.59-5.85,5.78-5.85,5.78,2.62,5.78,5.85Z"/><path class="cls-10" d="M212.25,238.62c0,3.23-2.59,5.85-5.78,5.85s-5.78-2.62-5.78-5.85,2.59-5.85,5.78-5.85,5.78,2.62,5.78,5.85Z"/></g></svg>