<?xml version="1.0" encoding="UTF-8"?><svg id="_レイヤー_2" xmlns="http://www.w3.org/2000/svg" xmlns:xlink="http://www.w3.org/1999/xlink" viewBox="0 0 237.42 319.82"><defs><style>.cls-1{fill:url(#Gold);}.cls-2{fill:url(#Gold-7);}.cls-3{fill:url(#Gold-6);}.cls-4{fill:url(#Gold-2);}.cls-5{fill:url(#Gold-9);}.cls-6{fill:url(#Gold-4);}.cls-7{fill:url(#Gold-3);}.cls-8{fill:url(#Gold-8);}.cls-9{fill:url(#Gold-5);}.cls-10{fill:#fcff92;}.cls-11{fill:url(#Gold-10);}.cls-12{fill:url(#Gold-11);}</style><linearGradient id="Gold" x1="216.21" y1="68.62" x2="231.6" y2="68.62" gradientUnits="userSpaceOnUse"><stop offset="0" stop-color="#fbc926"/><stop offset=".25" stop-color="#fffbcc"/><stop offset=".3" stop-color="#f8efba"/><stop offset=".41" stop-color="#e7d18d"/><stop offset=".55" stop-color="#cca246"/><stop offset=".6" stop-color="#c3922e"/><stop offset=".87" stop-color="#eed688"/><stop offset="1" stop-color="#fffbcc"/></linearGradient><linearGradient id="Gold-2" x1="183.83" y1="25.64" x2="217.43" y2="25.64" xlink:href="#Gold"/><linearGradient id="Gold-3" x1="165.27" y1="63.73" x2="218.62" y2="63.73" xlink:href="#Gold"/><linearGradient id="Gold-4" x1="135.49" y1="93.22" x2="164.6" y2="93.22" xlink:href="#Gold"/><linearGradient id="Gold-5" x1="108.33" y1="141.85" x2="138.1" y2="141.85" xlink:href="#Gold"/><linearGradient id="Gold-6" x1="105.72" y1="218.37" x2="114.37" y2="218.37" xlink:href="#Gold"/><linearGradient id="Gold-7" x1="101.57" y1="272.5" x2="114.34" y2="272.5" xlink:href="#Gold"/><linearGradient id="Gold-8" x1="60.34" y1="305.9" x2="102.44" y2="305.9" xlink:href="#Gold"/><linearGradient id="Gold-9" x1="15.71" y1="306.6" x2="57.19" y2="306.6" xlink:href="#Gold"/><linearGradient id="Gold-10" x1="4.19" y1="273.15" x2="17.86" y2="273.15" xlink:href="#Gold"/><linearGradient id="Gold-11" x1="4.05" y1="239.21" x2="16.12" y2="239.21" xlink:href="#Gold"/></defs><g id="_レイヤー_2-2"><path class="cls-1" d="M228.48,89.85l-2.45-8.31,3.12-.92,2.45,8.31-3.12.92ZM223.57,73.23l-2.45-8.31,3.11-.92,2.45,8.31-3.12.92ZM218.67,56.62l-2.45-8.31,3.12-.92,2.45,8.31-3.12.92Z"/><path class="cls-4" d="M214.96,46.82l-.76-.99,2.47-1.9.76.99-2.47,1.9ZM209.14,39.25l-5.06-6.58,2.47-1.9,5.06,6.58-2.47,1.9ZM199.01,26.09l-5.06-6.58,2.47-1.9,5.06,6.58-2.47,1.9ZM188.89,12.93l-5.06-6.58,2.47-1.9,5.06,6.58-2.47,1.9Z"/><path class="cls-7" d="M166.97,80.98l-1.7-2.77,7.38-4.54,1.7,2.77-7.38,4.54ZM181.73,71.91l-1.7-2.77,7.38-4.54,1.7,2.77-7.38,4.54ZM196.48,62.84l-1.7-2.77,7.38-4.54,1.7,2.77-7.38,4.54ZM211.24,53.77l-1.7-2.77,7.38-4.54,1.7,2.77-7.38,4.54Z"/><path class="cls-6" d="M137.65,106.45l-2.16-2.42,1.09-.98,2.16,2.42-1.09.98ZM145.21,99.71l-2.16-2.42,6.46-5.77,2.16,2.42-6.46,5.77ZM158.14,88.17l-2.16-2.42,6.46-5.77,2.16,2.42-6.46,5.77Z"/><path class="cls-9" d="M111.38,179.02l-3.05-1.11,2.97-8.14,3.05,1.11-2.97,8.14ZM117.32,162.75l-3.05-1.11,2.97-8.14,3.05,1.11-2.97,8.14ZM123.25,146.47l-3.05-1.11,2.97-8.14,3.05,1.11-2.97,8.14ZM129.19,130.2l-3.05-1.11,2.97-8.14,3.05,1.11-2.97,8.14ZM135.13,113.93l-3.05-1.11,2.97-8.14,3.05,1.11-2.97,8.14Z"/><path class="cls-3" d="M111.14,245.92l-.3-3.06,3.23-.32.3,3.06-3.23.32ZM109.98,234.24l-.85-8.62,3.23-.32.85,8.62-3.23.32ZM108.28,217l-.85-8.62,3.23-.32.85,8.62-3.23.32ZM106.58,199.76l-.85-8.62,3.23-.32.85,8.62-3.23.32Z"/><path class="cls-2" d="M104.74,293.98l-3.17-.72,1.92-8.45,3.17.72-1.92,8.45ZM108.58,277.09l-3.17-.72,1.92-8.45,3.17.72-1.92,8.45ZM112.42,260.2l-3.17-.72,1.92-8.45,3.17.72-1.92,8.45Z"/><path class="cls-8" d="M61.37,314.3l-1.03-3.08,8.21-2.75,1.03,3.08-8.21,2.75ZM77.8,308.81l-1.03-3.08,8.21-2.75,1.03,3.08-8.21,2.75ZM94.23,303.31l-1.03-3.08,8.21-2.75,1.03,3.08-8.21,2.75Z"/><path class="cls-5" d="M56.05,315.7l-8.11-3.05,1.14-3.04,8.11,3.05-1.14,3.04ZM39.83,309.61l-8.11-3.05,1.14-3.04,8.11,3.05-1.14,3.04ZM23.61,303.52l-7.9-2.97,1.14-3.04,7.9,2.97-1.14,3.04Z"/><path class="cls-11" d="M14.71,294.55l-2.1-8.4,3.15-.79,2.1,8.4-3.15.79ZM10.5,277.75l-2.1-8.4,3.15-.79,2.1,8.4-3.15.79ZM6.29,260.94l-2.1-8.4,3.15-.79,2.1,8.4-3.15.79Z"/><path class="cls-12" d="M7.1,251.95l-3.05-1.13,3.01-8.12,3.05,1.13-3.01,8.12ZM13.11,235.71l-3.05-1.13,3.01-8.12,3.05,1.13-3.01,8.12Z"/><polygon class="cls-10" points="173.19 94.96 163.44 89.76 153.63 94.85 155.56 83.97 147.69 76.21 158.64 74.68 163.59 64.8 168.42 74.74 179.35 76.39 171.39 84.06 173.19 94.96"/><polygon class="cls-10" points="25.95 308.24 16.2 303.04 6.39 308.13 8.32 297.25 .46 289.49 11.4 287.96 16.35 278.08 21.18 288.02 32.11 289.67 24.15 297.34 25.95 308.24"/><path class="cls-10" d="M223.34,47.85c0,3.11-2.5,5.63-5.57,5.63s-5.57-2.52-5.57-5.63,2.5-5.63,5.57-5.63,5.57,2.52,5.57,5.63Z"/><path class="cls-10" d="M190.4,5.4c0,2.98-2.39,5.4-5.34,5.4s-5.34-2.42-5.34-5.4,2.39-5.4,5.34-5.4,5.34,2.42,5.34,5.4Z"/><path class="cls-10" d="M237.42,95.49c0,3.11-2.5,5.63-5.57,5.63s-5.57-2.52-5.57-5.63,2.5-5.63,5.57-5.63,5.57,2.52,5.57,5.63Z"/><path class="cls-10" d="M142.14,105.23c0,3.11-2.49,5.63-5.57,5.63s-5.57-2.52-5.57-5.63,2.49-5.63,5.57-5.63,5.57,2.52,5.57,5.63Z"/><ellipse class="cls-10" cx="107.34" cy="185.35" rx="5.57" ry="5.63"/><path class="cls-10" d="M118.33,251.39c0,3.11-2.5,5.63-5.57,5.63s-5.57-2.52-5.57-5.63,2.49-5.63,5.57-5.63,5.57,2.52,5.57,5.63Z"/><path class="cls-10" d="M107.5,299.03c0,3.11-2.49,5.63-5.57,5.63s-5.57-2.52-5.57-5.63,2.5-5.63,5.57-5.63,5.57,2.52,5.57,5.63Z"/><ellipse class="cls-10" cx="51.04" cy="314.18" rx="5.57" ry="5.63"/><path class="cls-10" d="M21.97,222.16c0,3.11-2.49,5.63-5.57,5.63s-5.57-2.52-5.57-5.63,2.5-5.63,5.57-5.63,5.57,2.52,5.57,5.63Z"/><path class="cls-10" d="M11.15,251.39c0,3.11-2.5,5.63-5.57,5.63s-5.57-2.52-5.57-5.63,2.5-5.63,5.57-5.63,5.57,2.52,5.57,5.63Z"/></g></svg>