<?xml version="1.0" encoding="UTF-8"?><svg id="_レイヤー_2" xmlns="http://www.w3.org/2000/svg" xmlns:xlink="http://www.w3.org/1999/xlink" viewBox="0 0 321.48 391.21"><defs><style>.cls-1{fill:url(#Gold);}.cls-2{fill:url(#Gold-7);}.cls-3{fill:url(#Gold-6);}.cls-4{fill:url(#Gold-2);}.cls-5{fill:url(#Gold-9);}.cls-6{fill:url(#Gold-4);}.cls-7{fill:url(#Gold-3);}.cls-8{fill:url(#Gold-8);}.cls-9{fill:url(#Gold-5);}.cls-10{fill:#fcff92;}.cls-11{fill:url(#Gold-10);}.cls-12{fill:url(#Gold-11);}.cls-13{fill:url(#Gold-13);}.cls-14{fill:url(#Gold-12);}.cls-15{fill:url(#Gold-14);}</style><linearGradient id="Gold" x1="299.67" y1="64.71" x2="317.94" y2="64.71" gradientUnits="userSpaceOnUse"><stop offset="0" stop-color="#fbc926"/><stop offset=".25" stop-color="#fffbcc"/><stop offset=".3" stop-color="#f8efba"/><stop offset=".41" stop-color="#e7d18d"/><stop offset=".55" stop-color="#cca246"/><stop offset=".6" stop-color="#c3922e"/><stop offset=".87" stop-color="#eed688"/><stop offset="1" stop-color="#fffbcc"/></linearGradient><linearGradient id="Gold-2" x1="186.49" y1="194.93" x2="228.34" y2="194.93" xlink:href="#Gold"/><linearGradient id="Gold-3" x1="224.88" y1="107.88" x2="261.66" y2="107.88" xlink:href="#Gold"/><linearGradient id="Gold-4" x1="261" y1="83.08" x2="293.13" y2="83.08" xlink:href="#Gold"/><linearGradient id="Gold-5" x1="292.81" y1="28.94" x2="318.77" y2="28.94" xlink:href="#Gold"/><linearGradient id="Gold-6" x1="263.61" y1="11.21" x2="295.2" y2="11.21" xlink:href="#Gold"/><linearGradient id="Gold-7" x1="234.72" y1="32.43" x2="256.04" y2="32.43" xlink:href="#Gold"/><linearGradient id="Gold-8" x1="232.33" y1="62.72" x2="251.94" y2="62.72" xlink:href="#Gold"/><linearGradient id="Gold-9" x1="184.53" y1="289.89" x2="208.09" y2="289.89" xlink:href="#Gold"/><linearGradient id="Gold-10" x1="204.34" y1="347.54" x2="224.1" y2="347.54" xlink:href="#Gold"/><linearGradient id="Gold-11" x1="114.74" y1="347.73" x2="223.37" y2="347.73" xlink:href="#Gold"/><linearGradient id="Gold-12" x1="96.99" y1="297.73" x2="117.55" y2="297.73" xlink:href="#Gold"/><linearGradient id="Gold-13" x1="51.46" y1="271.28" x2="95.19" y2="271.28" xlink:href="#Gold"/><linearGradient id="Gold-14" x1="6.55" y1="261.31" x2="52.34" y2="261.31" xlink:href="#Gold"/></defs><g id="_レイヤー_2-2"><path class="cls-1" d="M303.21,79.78l-3.54-1.84,4.91-9.44,3.54,1.84-4.91,9.44ZM313.03,60.91l-3.54-1.84,4.91-9.44,3.54,1.84-4.91,9.44Z"/><path class="cls-10" d="M321.26,50.96c-.94,3.7-4.67,5.95-8.34,5.02-3.66-.93-5.87-4.69-4.93-8.39.94-3.7,4.68-5.95,8.34-5.01,3.66.93,5.87,4.69,4.93,8.39Z"/><path class="cls-4" d="M190.32,261.95l-3.84-1.1,2.92-10.23,3.84,1.1-2.92,10.23ZM196.17,241.5l-3.84-1.1,2.92-10.23,3.84,1.1-2.92,10.23ZM202.02,221.05l-3.84-1.1,2.92-10.23,3.83,1.1-2.92,10.23ZM207.87,200.59l-3.84-1.1,2.92-10.23,3.84,1.1-2.92,10.23ZM213.72,180.14l-3.84-1.1,2.93-10.23,3.84,1.1-2.92,10.23ZM219.57,159.69l-3.84-1.1,2.92-10.23,3.84,1.1-2.92,10.23ZM225.42,139.23l-3.84-1.1,2.92-10.23,3.84,1.1-2.92,10.23Z"/><path class="cls-7" d="M227.97,129.72l-3.09-2.53,6.74-8.23,3.09,2.53-6.74,8.23ZM241.44,113.26l-3.09-2.53,6.74-8.23,3.09,2.53-6.74,8.23ZM254.92,96.8l-3.09-2.53,6.74-8.23,3.09,2.53-6.74,8.23Z"/><path class="cls-6" d="M261.68,87.77l-.68-3.93,10.48-1.81.68,3.93-10.48,1.81ZM282.64,84.14l-.68-3.93,10.48-1.81.68,3.93-10.48,1.81Z"/><path class="cls-9" d="M315.19,52.45l-4.72-9.53,3.57-1.77,4.72,9.53-3.57,1.77ZM305.76,33.38l-4.72-9.53,3.57-1.77,4.72,9.53-3.57,1.77ZM296.32,14.31l-3.52-7.11,3.57-1.77,3.52,7.11-3.57,1.77Z"/><path class="cls-3" d="M264.83,18l-1.22-3.8,10.12-3.26,1.22,3.8-10.12,3.26ZM285.08,11.48l-1.22-3.8,10.12-3.26,1.22,3.8-10.12,3.26Z"/><path class="cls-2" d="M238.01,46.72l-3.29-2.25,6.01-8.77,3.29,2.25-6.01,8.77ZM250.03,29.17l-3.29-2.25,6.01-8.77,3.29,2.25-6.01,8.77Z"/><path class="cls-8" d="M248.5,77.49l-5.39-9.17,3.44-2.02,5.39,9.17-3.44,2.02ZM237.72,59.15l-5.39-9.17,3.44-2.02,5.39,9.17-3.44,2.02Z"/><path class="cls-5" d="M204.48,312.01l-1.89-4.02,3.61-1.69,1.89,4.02-3.61,1.69ZM198.08,298.36l-4.51-9.63,3.61-1.69,4.51,9.63-3.61,1.69ZM189.05,279.1l-4.51-9.63,3.61-1.69,4.51,9.63-3.61,1.69Z"/><path class="cls-11" d="M220.21,384.34l-2.27-10.39,3.9-.85,2.27,10.39-3.9.85ZM215.67,363.56l-2.27-10.39,3.9-.85,2.27,10.39-3.9.85ZM211.14,342.77l-2.27-10.39,3.9-.85,2.27,10.39-3.9.85ZM206.6,321.99l-2.27-10.39,3.9-.85,2.27,10.39-3.9.85Z"/><path class="cls-12" d="M221.11,385.94l-8.77-6.03,2.26-3.29,8.77,6.03-2.26,3.29ZM203.58,373.89l-8.77-6.03,2.26-3.29,8.77,6.03-2.26,3.29ZM186.05,361.84l-8.77-6.03,2.26-3.29,8.77,6.03-2.26,3.29ZM168.52,349.78l-8.77-6.03,2.26-3.29,8.77,6.03-2.26,3.29ZM150.99,337.73l-8.77-6.03,2.26-3.29,8.77,6.03-2.26,3.29ZM133.46,325.68l-8.77-6.03,2.26-3.29,8.77,6.03-2.26,3.29ZM115.93,313.63l-1.19-.82,2.26-3.29,1.19.82-2.26,3.29Z"/><path class="cls-14" d="M114.19,312.24l-5.73-8.96,3.36-2.15,5.73,8.96-3.36,2.15ZM102.72,294.33l-5.73-8.96,3.36-2.15,5.73,8.96-3.36,2.15Z"/><path class="cls-13" d="M94,279.83l-10.15-3.17,1.19-3.81,10.15,3.17-1.19,3.81ZM73.7,273.49l-10.15-3.17,1.19-3.81,10.15,3.17-1.19,3.81ZM53.39,267.14l-1.94-.61,1.19-3.81,1.94.61-1.19,3.81Z"/><path class="cls-15" d="M51.76,266.61l-10.52-1.55.58-3.95,10.52,1.55-.58,3.95ZM30.71,263.51l-10.52-1.55.58-3.95,10.52,1.55-.58,3.95ZM9.67,260.42l-3.11-.46.58-3.95,3.11.46-.58,3.95Z"/><polygon class="cls-10" points="237.96 146.98 225.99 140.59 213.94 146.84 216.31 133.48 206.65 123.95 220.09 122.07 226.17 109.94 232.1 122.14 245.52 124.17 235.75 133.59 237.96 146.98"/><path class="cls-10" d="M261.03,20.96c-.94,3.7-4.68,5.95-8.34,5.02-3.66-.93-5.87-4.69-4.93-8.39.94-3.7,4.67-5.95,8.34-5.01,3.66.93,5.87,4.69,4.93,8.39Z"/><path class="cls-10" d="M296.29,11.05c-2.32,3.03-6.64,3.63-9.64,1.34-3-2.29-3.56-6.62-1.24-9.65,2.32-3.03,6.64-3.63,9.64-1.34,3,2.3,3.56,6.62,1.24,9.65Z"/><path class="cls-10" d="M308.08,80.55c-.94,3.7-4.67,5.95-8.34,5.01-3.66-.93-5.87-4.69-4.93-8.39.94-3.7,4.68-5.95,8.34-5.02,3.66.93,5.87,4.69,4.93,8.39Z"/><path class="cls-10" d="M267.97,87.49c-.94,3.7-4.67,5.95-8.34,5.01-3.66-.93-5.87-4.69-4.93-8.39.94-3.7,4.68-5.95,8.34-5.02,3.66.93,5.87,4.69,4.93,8.39Z"/><path class="cls-10" d="M193.18,268.62c0,3.82-3.06,6.92-6.84,6.92s-6.84-3.1-6.84-6.92,3.06-6.92,6.84-6.92,6.84,3.1,6.84,6.92Z"/><ellipse class="cls-10" cx="206.28" cy="311.17" rx="6.84" ry="6.92"/><ellipse class="cls-10" cx="222.24" cy="384.3" rx="6.84" ry="6.92"/><path class="cls-10" d="M122.72,311.17c0,3.82-3.06,6.92-6.84,6.92s-6.84-3.1-6.84-6.92,3.06-6.92,6.84-6.92,6.84,3.1,6.84,6.92Z"/><path class="cls-10" d="M101.44,277.93c0,3.82-3.06,6.92-6.84,6.92s-6.84-3.1-6.84-6.92,3.06-6.92,6.84-6.92,6.84,3.1,6.84,6.92Z"/><path class="cls-10" d="M58.89,264.63c0,3.82-3.06,6.92-6.84,6.92s-6.84-3.1-6.84-6.92,3.06-6.92,6.84-6.92,6.84,3.1,6.84,6.92Z"/><path class="cls-10" d="M13.69,257.98c0,3.82-3.06,6.92-6.84,6.92s-6.84-3.1-6.84-6.92,3.06-6.92,6.84-6.92,6.84,3.1,6.84,6.92Z"/><path class="cls-10" d="M240.68,50.66c-.94,3.7-4.68,5.95-8.34,5.02-3.66-.93-5.87-4.69-4.93-8.39.94-3.7,4.68-5.95,8.34-5.01,3.66.93,5.87,4.69,4.93,8.39Z"/></g></svg>