<?xml version="1.0" encoding="UTF-8"?><svg id="_レイヤー_2" xmlns="http://www.w3.org/2000/svg" xmlns:xlink="http://www.w3.org/1999/xlink" viewBox="0 0 414.92 400.51"><defs><style>.cls-1{fill:url(#Gold);}.cls-2{fill:url(#Gold-7);}.cls-3{fill:url(#Gold-6);}.cls-4{fill:url(#Gold-2);}.cls-5{fill:url(#Gold-9);}.cls-6{fill:url(#Gold-4);}.cls-7{fill:url(#Gold-3);}.cls-8{fill:url(#Gold-8);}.cls-9{fill:url(#Gold-5);}.cls-10{fill:#fcff92;}.cls-11{fill:url(#Gold-10);}</style><linearGradient id="Gold" x1="16.69" y1="183.1" x2="145.69" y2="183.1" gradientUnits="userSpaceOnUse"><stop offset="0" stop-color="#fbc926"/><stop offset=".25" stop-color="#fffbcc"/><stop offset=".3" stop-color="#f8efba"/><stop offset=".41" stop-color="#e7d18d"/><stop offset=".55" stop-color="#cca246"/><stop offset=".6" stop-color="#c3922e"/><stop offset=".87" stop-color="#eed688"/><stop offset="1" stop-color="#fffbcc"/></linearGradient><linearGradient id="Gold-2" x1="143.24" y1="258.27" x2="249.95" y2="258.27" xlink:href="#Gold"/><linearGradient id="Gold-3" x1="234.95" y1="344.62" x2="258.38" y2="344.62" xlink:href="#Gold"/><linearGradient id="Gold-4" x1="259" y1="247" x2="350.99" y2="247" xlink:href="#Gold"/><linearGradient id="Gold-5" x1="353.15" y1="188.24" x2="411.39" y2="188.24" xlink:href="#Gold"/><linearGradient id="Gold-6" x1="246.39" y1="165.19" x2="351.72" y2="165.19" xlink:href="#Gold"/><linearGradient id="Gold-7" x1="150.31" y1="74.17" x2="246.57" y2="74.17" xlink:href="#Gold"/><linearGradient id="Gold-8" x1="93.59" y1="11.49" x2="152.35" y2="11.49" xlink:href="#Gold"/><linearGradient id="Gold-9" x1="16.6" y1="45.36" x2="95.45" y2="45.36" xlink:href="#Gold"/><linearGradient id="Gold-10" x1="15.61" y1="113.39" x2="21.06" y2="113.39" xlink:href="#Gold"/></defs><g id="_レイヤー_2-2"><path class="cls-1" d="M143.53,220.12l-1.47-.81,2.17-3.92,1.47.81-2.17,3.92ZM131.6,213.53l-10.45-5.78,2.17-3.92,10.45,5.78-2.17,3.92ZM110.71,201.98l-10.45-5.78,2.17-3.92,10.45,5.78-2.17,3.92ZM89.82,190.43l-10.45-5.78,2.17-3.92,10.45,5.78-2.17,3.92ZM68.92,178.87l-10.45-5.78,2.17-3.92,10.45,5.78-2.17,3.92ZM48.03,167.32l-10.45-5.78,2.17-3.92,10.45,5.78-2.17,3.92ZM27.14,155.77l-10.45-5.78,2.17-3.92,10.45,5.78-2.17,3.92Z"/><path class="cls-4" d="M247.21,300.15l-9.45-7.29,2.73-3.54,9.45,7.29-2.73,3.54ZM228.31,285.56l-9.45-7.29,2.73-3.54,9.45,7.29-2.73,3.54ZM209.4,270.98l-9.45-7.29,2.73-3.54,9.45,7.29-2.73,3.54ZM190.5,256.4l-9.45-7.29,2.73-3.54,9.45,7.29-2.73,3.54ZM171.6,241.81l-9.45-7.29,2.73-3.54,9.45,7.29-2.73,3.54ZM152.69,227.23l-9.45-7.29,2.73-3.54,9.45,7.29-2.73,3.54Z"/><path class="cls-7" d="M239.3,385.5l-4.36-1.03,2.61-11.03,4.36,1.03-2.61,11.03ZM244.66,362.86l-4.36-1.03,2.74-11.62,4.36,1.03-2.74,11.62ZM250.15,339.62l-4.36-1.03,2.74-11.62,4.36,1.03-2.74,11.62ZM255.64,316.39l-4.36-1.03,2.74-11.62,4.36,1.03-2.74,11.62Z"/><path class="cls-6" d="M262.3,296.93l-3.3-3.02,8.06-8.8,3.3,3.02-8.06,8.8ZM278.43,279.32l-3.3-3.02,8.06-8.8,3.3,3.02-8.06,8.8ZM294.55,261.71l-3.3-3.02,8.06-8.8,3.3,3.02-8.06,8.8ZM310.68,244.11l-3.3-3.02,8.06-8.8,3.3,3.02-8.06,8.8ZM326.8,226.5l-3.3-3.02,8.06-8.8,3.3,3.02-8.06,8.8ZM342.93,208.89l-3.3-3.02,8.06-8.8,3.3,3.02-8.06,8.8Z"/><path class="cls-9" d="M354.5,199.41l-1.35-4.27,11.38-3.61,1.35,4.27-11.38,3.61ZM377.26,192.18l-1.35-4.27,11.38-3.61,1.35,4.27-11.38,3.61ZM400.01,184.96l-1.35-4.27,11.38-3.61,1.35,4.27-11.38,3.61Z"/><path class="cls-3" d="M349.35,199.17l-10.13-6.31,2.37-3.8,10.13,6.31-2.37,3.8ZM329.09,186.55l-10.13-6.31,2.37-3.8,10.13,6.31-2.37,3.8ZM308.82,173.92l-10.13-6.31,2.37-3.8,10.13,6.31-2.37,3.8ZM288.56,161.29l-10.13-6.31,2.37-3.8,10.13,6.31-2.37,3.8ZM268.3,148.66l-10.13-6.31,2.37-3.8,10.13,6.31-2.37,3.8ZM248.04,136.04l-1.65-1.03,2.37-3.8,1.65,1.03-2.37,3.8Z"/><path class="cls-2" d="M243.05,134.49l-7.38-9.38,3.52-2.77,7.38,9.38-3.52,2.77ZM228.29,115.73l-7.38-9.38,3.52-2.77,7.38,9.38-3.52,2.77ZM213.52,96.96l-7.38-9.38,3.52-2.77,7.38,9.38-3.52,2.77ZM198.76,78.2l-7.38-9.38,3.52-2.77,7.38,9.38-3.52,2.77ZM184,59.43l-7.38-9.38,3.52-2.77,7.38,9.38-3.52,2.77ZM169.24,40.67l-7.38-9.38,3.52-2.77,7.38,9.38-3.52,2.77ZM154.48,21.9l-4.17-5.3,3.52-2.77,4.17,5.3-3.52,2.77Z"/><path class="cls-8" d="M151.79,17.44l-11.84-1.52.57-4.44,11.84,1.52-.57,4.44ZM128.1,14.41l-11.84-1.52.57-4.44,11.84,1.52-.57,4.44ZM104.42,11.37l-10.83-1.39.57-4.44,10.83,1.39-.57,4.44Z"/><path class="cls-5" d="M19.75,84.54l-3.15-3.18,7.94-7.89,3.15,3.18-7.94,7.89ZM36.16,68.24l-3.15-3.18,8.47-8.41,3.15,3.18-8.47,8.41ZM53.1,51.41l-3.15-3.18,8.47-8.41,3.15,3.18-8.47,8.41ZM70.04,34.59l-3.15-3.18,8.47-8.41,3.15,3.18-8.47,8.41ZM86.98,17.76l-3.15-3.18,8.47-8.41,3.15,3.18-8.47,8.41Z"/><path class="cls-11" d="M20.09,143.27l-4.48-.07.2-11.94,4.48.07-.2,11.94ZM20.48,119.4l-4.48-.07.19-11.94,4.48.07-.19,11.94ZM20.87,95.52l-4.48-.07.2-11.94,4.48.07-.2,11.94Z"/><polygon class="cls-10" points="34.11 96.52 21.58 93.09 11.65 101.47 11.04 88.49 0 81.63 12.16 77.04 15.27 64.43 23.39 74.57 36.35 73.63 29.21 84.49 34.11 96.52"/><polygon class="cls-10" points="268.96 320.75 256.71 314.78 244.84 321.48 246.74 307.98 236.69 298.77 250.11 296.4 255.77 284 262.17 296.03 275.72 297.58 266.25 307.39 268.96 320.75"/><path class="cls-10" d="M101.56,7.76c0,4.29-3.44,7.76-7.68,7.76s-7.68-3.48-7.68-7.76,3.44-7.76,7.68-7.76,7.68,3.48,7.68,7.76Z"/><path class="cls-10" d="M159.75,15.22c0,4.29-3.44,7.76-7.68,7.76s-7.68-3.48-7.68-7.76,3.44-7.76,7.68-7.76,7.68,3.48,7.68,7.76Z"/><path class="cls-10" d="M255.25,133.11c0,4.29-3.44,7.76-7.68,7.76s-7.68-3.48-7.68-7.76,3.44-7.76,7.68-7.76,7.68,3.48,7.68,7.76Z"/><path class="cls-10" d="M358.21,197.27c0,4.29-3.44,7.76-7.68,7.76s-7.68-3.48-7.68-7.76,3.44-7.76,7.68-7.76,7.68,3.48,7.68,7.76Z"/><path class="cls-10" d="M244.81,392.75c0,4.29-3.44,7.76-7.68,7.76s-7.68-3.48-7.68-7.76,3.44-7.76,7.68-7.76,7.68,3.48,7.68,7.76Z"/><path class="cls-10" d="M414.92,177.87c0,4.29-3.44,7.76-7.68,7.76s-7.68-3.48-7.68-7.76,3.44-7.76,7.68-7.76,7.68,3.48,7.68,7.76Z"/><path class="cls-10" d="M25.45,148.03c0,4.29-3.44,7.76-7.68,7.76s-7.68-3.48-7.68-7.76,3.44-7.76,7.68-7.76,7.68,3.48,7.68,7.76Z"/><path class="cls-10" d="M152.29,218.16c0,4.29-3.44,7.76-7.68,7.76s-7.68-3.48-7.68-7.76,3.44-7.76,7.68-7.76,7.68,3.48,7.68,7.76Z"/></g></svg>