<?xml version="1.0" encoding="UTF-8"?><svg id="_レイヤー_2" xmlns="http://www.w3.org/2000/svg" viewBox="0 0 151.47 135.55"><defs><style>.cls-1{fill:#87a3b4;}.cls-2{fill:#fff;}</style></defs><g id="TOP"><path class="cls-2" d="M21.12,135.55c1.72-5.71,2.94-10.5,4.62-15.11,1.11-3.05.45-4.76-2.08-6.85C9.22,101.67.61,86.52.03,67.55c-.55-18.04,6.5-33.14,19.27-45.62,29.84-29.14,82.48-29.23,112.53-.28,27.08,26.1,26.13,66.39-2.71,90.78-22.38,18.92-48.29,23.14-76.43,16.33-2.77-.67-6-.63-8.76.07-7.29,1.83-14.44,4.21-22.8,6.72ZM37.46,54.62c-6.31-.11-11.42,4.76-11.54,11.02-.12,6.28,4.79,11.38,11.07,11.5,6.3.12,11.4-4.76,11.55-11.03.14-6.25-4.8-11.38-11.08-11.49ZM86.96,65.78c-.06-6.31-5.05-11.21-11.38-11.16-6.31.05-11.25,5.06-11.19,11.35.06,6.3,5.07,11.21,11.38,11.16,6.31-.04,11.24-5.05,11.18-11.36ZM114.02,77.14c6.33.07,11.32-4.82,11.38-11.14.07-6.33-4.82-11.32-11.14-11.38-6.34-.06-11.33,4.82-11.39,11.14-.06,6.32,4.84,11.32,11.15,11.39Z"/><path class="cls-1" d="M37.46,54.62c6.28.11,11.22,5.24,11.08,11.49-.14,6.27-5.25,11.15-11.55,11.03-6.28-.12-11.19-5.22-11.07-11.5.12-6.26,5.22-11.13,11.54-11.02Z"/><path class="cls-1" d="M86.96,65.78c.06,6.31-4.87,11.31-11.18,11.36-6.32.04-11.32-4.87-11.38-11.16-.06-6.29,4.88-11.31,11.19-11.35,6.33-.05,11.32,4.85,11.38,11.16Z"/><path class="cls-1" d="M114.02,77.14c-6.31-.07-11.2-5.07-11.15-11.39.06-6.31,5.05-11.19,11.39-11.14,6.32.06,11.21,5.05,11.14,11.38-.07,6.32-5.06,11.21-11.38,11.14Z"/></g></svg>