<?xml version="1.0" encoding="UTF-8"?><svg id="_レイヤー_2" xmlns="http://www.w3.org/2000/svg" viewBox="0 0 88.79 85.67"><defs><style>.cls-1{fill:#fff;}.cls-2{fill:#90bddc;}</style></defs><g id="_レイヤー_2-2"><path class="cls-2" d="M88.79.13L0,85.67V0l88.79.13Z"/><path class="cls-1" d="M28.12,53.29c-.7.68-1.57,1.14-2.57.92-3.75-.89-14.87-3.51-18.46-5.01-.29-.11-.43-.11-.49-.06-.07.07,0,.22.18.4,1.46,1.47,4.59,4.47,6.34,6.27l4.98,5.12c.71.73.56,1.6.04,2.1-.51.5-1.38.63-2.1-.1l-12.73-13.11c-.87-.9-.65-2.36.25-3.24.94-.91,1.77-1.11,2.8-.86,10.43,2.4,15.21,3.61,17.85,4.6.23.09.41.1.49.03.09-.09.04-.25-.16-.45-2.12-2.11-4.43-4.41-6.51-6.56l-4.39-4.52c-.68-.7-.5-1.55.01-2.05.51-.5,1.37-.65,2.04.05l12.4,12.76c1.12,1.16,1.01,2.77.04,3.71Z"/><path class="cls-1" d="M43.64,36.24c.43.44.56,1.17-.04,1.76l-8.63,8.38c-1.36,1.32-3,1.13-4.02.09l-11.18-11.51c-1.2-1.23-.97-2.91.19-4.03l8.04-7.81c.62-.61,1.36-.47,1.81,0,.41.42.53,1.17-.08,1.75l-6.79,6.6c-.39.37-.34.94.02,1.3l3.8,3.91,6.79-6.6c.62-.61,1.35-.45,1.76-.03.43.44.56,1.17-.06,1.77l-6.79,6.6,4.71,4.85c.39.4.95.47,1.39.04l7.34-7.13c.55-.54,1.31-.38,1.75.08Z"/><path class="cls-1" d="M50.46,3.36l9.8,15.6c.73,1.15.6,2.52-.39,3.49-1.05,1.02-2.37,1.05-3.59.35-1.55-.82-6.33-3.8-9.74-6.02-1.18-.78-2.37-1.63-3.59-2.37-.13-.09-.32-.08-.45.05-.13.12-.09.31,0,.43.73,1.15,1.52,2.27,2.27,3.4,4,6.07,5.8,9.24,6.1,9.77.67,1.17.73,2.4-.28,3.38-.97.95-2.39.96-3.52.27l-15.36-9.35c-.13-.09-.27-.2-.39-.33-.75-.77-.55-1.89.18-2.6.95-.93,2.04-.59,3.25.3l2.01,1.3,6.8,4.39,2.37,1.56c1.31.87,1.49.94,1.65.78.15-.14.08-.32,0-.47-.14-.22-1.79-2.9-6.18-9.56l-1.36-2.1c-.23-.35-.5-.7-.69-1.04-.67-1.2-.42-2.41.57-3.38.95-.93,2.12-1.13,3.3-.5.18.11,2.01,1.12,10.26,6.3,1.06.69,2.12,1.41,3.17,2.06.14.07.29.04.4-.07.09-.09.11-.25.04-.36l-9.02-13.62c-.39-.62-.38-1.35.15-1.86.55-.54,1.46-.63,2.01-.06.09.09.16.17.21.26Z"/></g></svg>