<?xml version="1.0" encoding="UTF-8"?><svg id="_レイヤー_2" xmlns="http://www.w3.org/2000/svg" viewBox="0 0 154.37 147.05"><defs><style>.cls-1{fill:#87a3b4;}.cls-2{fill:#fff;}</style></defs><g id="TOP"><g id="mEhVO5"><path class="cls-2" d="M74.99,0c22.11.18,40.37,5.52,56.2,17.98,11.55,9.09,19.55,20.6,22.27,35.28,2.44,13.13-.04,25.4-7.14,36.71-6.74,10.73-15.84,19.25-25.62,27.1-12.65,10.16-25.97,19.34-40.18,27.19-1.78.98-3.66,1.84-5.59,2.45-3.39,1.07-4.84-.4-4.22-3.98.47-2.75.84-5.52,1.28-8.27,1.2-7.64-2.18-9.23-8.03-10.14-14.92-2.32-28.66-7.41-40.59-16.82C12,98.54,3.97,87.32,1.1,72.95c-3.16-15.83.57-30.2,10.28-42.95C22.24,15.75,36.98,7.43,54.05,2.9c2.84-.75,5.73-1.43,8.64-1.79,4.79-.59,9.61-.88,12.3-1.12ZM91.54,65.43l-.44.22c-4.14-5.57-8.54-10.97-12.32-16.78-2.32-3.56-5.21-3.82-8.75-3.36-1.45.19-2.14.89-2.14,2.37.02,10.9.01,21.79,0,32.69,0,1.61.79,2.33,2.4,2.28,1.44-.05,2.88-.05,4.31,0,1.62.06,2.38-.64,2.34-2.29-.05-1.74,0-3.48,0-5.22,0-4.27,0-8.54,0-13.36,4.55,6.15,8.86,11.71,12.84,17.49,1.79,2.61,3.76,3.68,6.92,3.44,3.85-.29,4.09-.26,4.1-4.13.02-9.23,0-18.46,0-27.69,0-5.77-.34-6.09-6.04-5.7-2.77.19-3.22.65-3.22,3.48-.01,5.52,0,11.04,0,16.56ZM105.22,64.12c0,5.22-.03,10.45.01,15.67.02,2.57.53,3.05,3.07,3.05,5.6.01,11.2,0,16.81,0,5.94,0,6.23-.35,5.76-6.28-.15-1.94-1-2.83-3.03-2.79-3.78.09-7.57-.05-11.35.05-2.02.05-1.92-1.17-1.9-2.52.02-1.3-.22-2.64,1.85-2.57,2.87.1,5.75.02,8.63.02,5.96,0,6.19-.27,5.82-6.28-.12-1.95-.91-2.85-2.97-2.79-3.78.1-7.57-.06-11.35.06-2.19.07-1.94-1.29-1.98-2.68-.05-1.45.08-2.51,2.01-2.43,2.87.12,5.75.03,8.63.03,5.72,0,5.81-.09,5.66-5.83-.07-2.75-.6-3.4-3.33-3.43-6.28-.07-12.57-.07-18.85,0-2.97.03-3.47.64-3.48,3.72-.02,5,0,9.99,0,14.99ZM24.75,64.31c0,5.22.06,10.44-.03,15.66-.03,2.17.82,2.94,2.97,2.9,5.45-.1,10.89-.01,16.34-.04,6.77-.03,6.05.86,6.13-6.25.02-2.07-.89-2.84-2.88-2.81-3.48.06-6.96.02-10.44.02q-3.04,0-3.04-2.93c0-6.66,0-13.32,0-19.98,0-5.6-.57-6.05-6.32-5.48-1.93.19-2.8.96-2.76,3.01.1,5.3.03,10.59.03,15.89ZM54.26,64.24c0,4.23-.02,8.46,0,12.69.04,6.66-.78,5.88,5.92,5.91,2.78.01,3.11-.32,3.11-3.15.01-9.52,0-19.04,0-28.56,0-5.79-.69-6.37-6.59-5.73-1.73.19-2.51.89-2.48,2.74.09,5.36.03,10.73.03,16.09Z"/><path class="cls-1" d="M91.54,65.43c0-5.52,0-11.04,0-16.56,0-2.82.45-3.28,3.22-3.48,5.7-.39,6.04-.07,6.04,5.7,0,9.23.01,18.46,0,27.69,0,3.87-.24,3.84-4.1,4.13-3.16.24-5.13-.82-6.92-3.44-3.98-5.79-8.29-11.34-12.84-17.49,0,4.82,0,9.09,0,13.36,0,1.74-.04,3.48,0,5.22.04,1.65-.72,2.34-2.34,2.29-1.44-.05-2.88-.05-4.31,0-1.61.05-2.4-.67-2.4-2.28,0-10.9,0-21.79,0-32.69,0-1.49.69-2.19,2.14-2.37,3.53-.46,6.43-.2,8.75,3.36,3.78,5.81,8.18,11.21,12.32,16.78l.44-.22Z"/><path class="cls-1" d="M105.22,64.12c0-5-.01-9.99,0-14.99.01-3.08.52-3.7,3.48-3.72,6.28-.06,12.57-.06,18.85,0,2.73.03,3.26.68,3.33,3.43.15,5.74.06,5.83-5.66,5.83-2.88,0-5.76.09-8.63-.03-1.93-.08-2.06.98-2.01,2.43.04,1.39-.21,2.75,1.98,2.68,3.78-.12,7.57.04,11.35-.06,2.06-.06,2.85.85,2.97,2.79.37,6.01.14,6.28-5.82,6.28-2.88,0-5.76.07-8.63-.02-2.07-.07-1.83,1.28-1.85,2.57-.02,1.35-.12,2.58,1.9,2.52,3.78-.1,7.57.03,11.35-.05,2.02-.05,2.87.85,3.03,2.79.47,5.93.17,6.28-5.76,6.28-5.6,0-11.2,0-16.81,0-2.54,0-3.06-.48-3.07-3.05-.04-5.22-.01-10.45-.01-15.67Z"/><path class="cls-1" d="M24.75,64.31c0-5.3.06-10.6-.03-15.89-.04-2.04.83-2.81,2.76-3.01,5.75-.58,6.32-.12,6.32,5.48,0,6.66,0,13.32,0,19.98q0,2.93,3.04,2.93c3.48,0,6.96.05,10.44-.02,1.99-.04,2.91.74,2.88,2.81-.08,7.11.64,6.22-6.13,6.25-5.45.02-10.9-.06-16.34.04-2.15.04-3-.74-2.97-2.9.08-5.22.03-10.44.03-15.66Z"/><path class="cls-1" d="M54.26,64.24c0-5.36.06-10.73-.03-16.09-.03-1.85.75-2.55,2.48-2.74,5.9-.64,6.59-.07,6.59,5.73,0,9.52,0,19.04,0,28.56,0,2.83-.33,3.16-3.11,3.15-6.7-.03-5.89.75-5.92-5.91-.02-4.23,0-8.46,0-12.69Z"/></g></g></svg>