<?xml version="1.0" encoding="UTF-8"?><svg id="_レイヤー_2" xmlns="http://www.w3.org/2000/svg" viewBox="0 0 138.21 138.21"><defs><style>.cls-1{fill:#87a3b4;}.cls-2{fill:#fff;}</style></defs><g id="TOP"><circle class="cls-2" cx="69.11" cy="69.11" r="69.11"/><path class="cls-1" d="M21.22,47.38c.04-9.86,2.48-17.75,8.53-24.31,3.97-4.3,9.06-3.36,11.76,1.82,3,5.75,6.26,11.37,9.63,16.91,2.62,4.3,1.76,8.25-2.7,10.6-.68.36-1.37.72-2.03,1.12-2.96,1.77-3.99,4.9-2.45,7.99,6.81,13.58,17,23.82,30.56,30.68,3.21,1.62,6.43.6,8.25-2.48.55-.93,1-1.92,1.55-2.85,1.92-3.23,6-4.36,9.13-2.29,6.07,4.02,12.35,7.63,18.91,10.8,4.01,1.94,4.63,7.26,1.41,10.5-4.66,4.67-10.34,7.43-16.81,8.57-9.45,1.66-18.57.11-27.19-3.72-22.63-10.06-38.41-26.59-46.34-50.25-.81-2.43-1.27-5-1.69-7.53-.36-2.18-.42-4.41-.52-5.55Z"/></g></svg>