<?xml version="1.0" encoding="UTF-8"?><svg id="_レイヤー_2" xmlns="http://www.w3.org/2000/svg" viewBox="0 0 24.89 24.88"><defs><style>.cls-1{fill:#646464;}</style></defs><g id="_レイヤー_2-2"><g id="EFMQZt"><path class="cls-1" d="M12.43,24.88C5.11,24.84-.66,18.55.06,11.27.47,7.06,2.56,3.84,6.2,1.66c.82-.49,1.63-.27,1.94.5.27.64.05,1.2-.71,1.64-1.71.99-3.04,2.36-3.89,4.14-1.67,3.49-1.49,6.93.71,10.12,2.18,3.16,5.3,4.62,9.14,4.26,5.11-.48,8.88-4.59,9.02-9.7.14-4.89-3.44-9.18-8.37-10.04-.52-.09-1.06-.1-1.58-.15-.77-.07-1.28-.58-1.24-1.27C11.24.47,11.78-.02,12.56,0c4.29.11,7.73,1.9,10.15,5.44,5.21,7.6.56,17.99-8.58,19.27-.57.08-1.14.11-1.71.17Z"/><path class="cls-1" d="M11.2,9.93c0-.75,0-1.5,0-2.25.02-.94.47-1.47,1.26-1.46.78,0,1.22.53,1.23,1.49.01,1.19.02,2.39,0,3.58,0,.42.12.69.44.96,1.14.94,2.26,1.91,3.37,2.89.59.52.67,1.23.26,1.77-.44.56-1.18.67-1.76.19-1.47-1.24-2.94-2.48-4.35-3.78-.27-.24-.39-.73-.42-1.12-.07-.75-.02-1.5-.02-2.25Z"/></g></g></svg>