<?xml version="1.0" encoding="UTF-8"?><svg id="_レイヤー_2" xmlns="http://www.w3.org/2000/svg" viewBox="0 0 27.06 27.06"><defs><style>.cls-1{fill:#fff;}.cls-2{fill:#87a2b3;}</style></defs><g id="_レイヤー_1-2"><circle class="cls-1" cx="13.53" cy="13.53" r="13.53"/><path class="cls-2" d="M20.94,14.88c-.32,0-.63-.12-.88-.35l-6.48-6.16-6.58,6.12c-.51.48-1.32.45-1.8-.07-.48-.52-.45-1.32.07-1.8l8.34-7.75,8.22,7.82c.51.49.53,1.29.05,1.8-.25.26-.59.4-.92.4Z"/><path class="cls-2" d="M10.94,17.33v.51h-1.56v4.14h-.58v-4.14h-1.56v-.51h3.71Z"/><path class="cls-2" d="M15.37,19.65c0,1.41-.83,2.45-2.1,2.45s-2.09-1.03-2.09-2.45c0-1.33.76-2.45,2.09-2.45s2.1,1.14,2.1,2.45ZM11.77,19.65c0,1.34.73,1.94,1.5,1.94.71,0,1.51-.52,1.51-1.94s-.74-1.94-1.51-1.94-1.5.55-1.5,1.94Z"/><path class="cls-2" d="M18.28,17.33c1.17,0,1.56.78,1.56,1.44,0,1.01-.65,1.43-1.56,1.43h-1.5v1.78h-.58v-4.65h2.08ZM16.78,17.84v1.86h1.45c.34,0,1-.15,1-.92,0-.64-.49-.94-1-.94h-1.45Z"/></g></svg>