<?xml version="1.0" encoding="UTF-8"?><svg id="_レイヤー_2" xmlns="http://www.w3.org/2000/svg" viewBox="0 0 380.65 51.04"><defs><style>.cls-1{font-family:Osaka, Osaka;font-size:47px;letter-spacing:-.07em;}.cls-1,.cls-2{fill:#fff;}</style></defs><g id="_レイヤー_2-2"><text class="cls-1" transform="translate(69.85 40.39)"><tspan x="0" y="0">0120-946-174</tspan></text><g id="vNfN8b"><path class="cls-2" d="M20.26,14.74c7.51-2.75,14.98-2.74,22.7.06-.47.36-.79.61-1.12.86-2.54,1.94-4.68,4.21-5.71,7.31-2.06,6.19,2.05,13.15,8.53,14.52,6.53,1.37,12.93-2.9,14.07-9.45.56-3.26-.34-6.2-2.46-8.68-1.21-1.4-2.67-2.58-4.03-3.86-.22-.2-.47-.37-.85-.66,3.78-1.54,7.57-2.03,11.53-2.17v30.44H.08V12.69c3.93.08,7.77.62,11.56,2.13-.99.8-1.91,1.49-2.76,2.25-2.1,1.87-3.81,4.03-4.5,6.82-1.09,4.47.96,9.26,5.05,11.92,7.32,4.74,16.84.37,17.95-8.29.45-3.46-.79-6.44-3.09-8.97-1.21-1.33-2.61-2.47-4.03-3.81Z"/><path class="cls-2" d="M0,2.83h62.93c.02.33.07.66.07.98,0,1.24,0,2.49,0,3.73,0,1.4,0,1.32-1.45,1.47-2.4.24-4.83.44-7.18.96-2.19.49-4.31,1.35-6.43,2.12-.57.21-1,.27-1.57,0-5.08-2.37-10.43-3.3-16.02-3.14-4.85.14-9.47,1.16-13.87,3.19-.33.15-.86.14-1.2-.02-4.42-2-9.05-3.02-13.89-3.15C0,8.96,0,8.94,0,7.6c0-1.55,0-3.11,0-4.77Z"/><path class="cls-2" d="M23.44,26.26c-.06,4.19-3,7.48-6.79,7.77-4.23.32-7.7-2.29-8.39-6.39-.31-1.83,0-3.58,1.04-5.17,1.54-2.35,3.7-3.99,6.09-5.37.22-.12.63-.12.85,0,2.36,1.36,4.51,2.98,6.03,5.3.8,1.22,1.27,2.55,1.17,3.86Z"/><path class="cls-2" d="M55.02,26.32c-.1,4.33-3.27,7.66-7.51,7.67-2.81,0-5.16-1.18-6.63-3.65-1.45-2.43-1.63-5-.23-7.53,1.47-2.65,3.84-4.36,6.38-5.84.19-.11.56-.1.75.02,2.36,1.37,4.52,2.97,6.04,5.29.88,1.34,1.22,2.57,1.19,4.04Z"/></g></g></svg>