<?xml version="1.0" encoding="UTF-8"?><svg id="_レイヤー_2" xmlns="http://www.w3.org/2000/svg" viewBox="0 0 580.46 197.01"><defs><style>.cls-1{font-family:GothicBBBPr5-Medium-83pv-RKSJ-H, 'A-OTF Gothic BBB Pr5';font-size:65.17px;font-weight:500;}.cls-1,.cls-2,.cls-3{fill:#fff;}.cls-4{fill:none;stroke:#fff;stroke-miterlimit:10;stroke-width:1.06px;}.cls-3{font-family:MaruFoPro-Regular-83pv-RKSJ-H, 'A-OTF Maru Folk Pro';font-size:47.83px;letter-spacing:.1em;}</style></defs><g id="_レイヤー_3"><text class="cls-3" transform="translate(116.72 71.9)"><tspan x="0" y="0">24時間受付中!</tspan></text><text class="cls-1" transform="translate(122.61 180.98)"><tspan x="0" y="0">0120-946-174</tspan></text><g id="URz7jl"><path class="cls-2" d="M6.21,142.72c6.14.05,12.07,1.04,17.82,2.91-1.68,1.33-3.4,2.54-4.94,3.95-3.27,2.99-5.46,6.61-5.52,11.18-.08,5.43,2.16,9.72,6.85,12.54,6.74,4.05,13.51,3.92,20.07-.39,6.55-4.31,8.22-12.8,3.97-19.45-1.94-3.03-4.62-5.29-7.61-7.22-.23-.15-.46-.31-.85-.56,12.16-3.92,24.15-3.91,36.21-.04-1.48,1.11-2.92,2.1-4.26,3.23-2.61,2.2-4.71,4.79-5.74,8.1-1.87,5.98.24,12.33,5.45,15.82,6.86,4.59,14.04,4.62,20.9.08,6.52-4.33,8.14-12.96,3.85-19.55-1.92-2.94-4.52-5.16-7.43-7.05-.23-.15-.47-.3-.71-.46,1.76-1.3,12.92-3.22,17.83-3.07v41.19H6.21v-41.21Z"/><path class="cls-2" d="M102.13,129.72v8.38c-1.93.11-3.82.18-5.71.33-6.02.48-11.87,1.74-17.51,3.94-.39.15-.93.14-1.32,0-6.67-2.55-13.58-3.86-20.7-4.13-9.07-.35-17.88.96-26.38,4.23-.27.1-.66.08-.94-.03-6.7-2.65-13.67-3.94-20.85-4.2-.81-.03-1.62,0-2.49,0v-8.52h95.9Z"/><path class="cls-2" d="M18.41,160.81c.04-2.62,1.34-4.94,3.25-6.98,2.29-2.44,5.07-4.2,8.06-5.64.24-.11.62-.14.85-.03,3.16,1.49,6.1,3.32,8.42,5.97,2.93,3.35,3.84,7.1,1.92,11.25-1.31,2.84-3.73,4.46-6.59,5.48-4.9,1.76-9.19.5-12.97-2.81-1.97-1.72-2.91-4.25-2.94-7.26Z"/><path class="cls-2" d="M89.92,160.96c-.13,4.13-1.96,7.01-5.35,8.91-4.81,2.69-9.5,2.34-13.97-.77-4.39-3.05-5.45-8.72-2.56-13.22,1.94-3.03,4.75-5.11,7.87-6.76,2.81-1.49,1.72-1.49,4.5,0,2.96,1.59,5.62,3.56,7.6,6.34,1.22,1.7,1.92,3.59,1.92,5.5Z"/></g><rect class="cls-4" x=".53" y=".53" width="579.41" height="101.98"/></g></svg>