<?xml version="1.0" encoding="UTF-8"?><svg id="_レイヤー_2" xmlns="http://www.w3.org/2000/svg" viewBox="0 0 74.74 71.29"><defs><style>.cls-1{fill:#030282;}</style></defs><g id="_レイヤー_2-2"><path class="cls-1" d="M67.33,12.33C59.41,3.8,49.24,.42,39.63,0,26.19-.19,15.43,4.12,7.61,12.1-1.53,21.42-2.58,35.42,5.24,45.86c6.35,8.48,15.16,12.7,25.43,14.38,3.65,.6,4.11,1.18,3.82,4.71-.08,.98-.37,1.96-.4,2.94-.02,.98-.18,2.24,.34,2.88,.84,1.04,2.1,.24,3.13-.16,.74-.29,1.47-.66,2.15-1.08,3.17-1.96,6.38-3.85,9.46-5.94,6.21-4.22,12.22-8.71,17.32-14.28,4.16-4.54,7.32-9.62,8.07-15.88,.98-8.17-1.73-15.2-7.21-21.11ZM22.01,41.07c-2.22,.02-4.45,.02-6.67,0-1.49-.01-2.22-.69-2.23-2.18-.03-4.53-.02-9.06,0-13.59,0-1.45,.74-2.26,1.91-2.23,1.14,.03,1.72,.77,1.73,2.22,0,1.83,0,3.66,0,5.48,0,1.87,.03,3.74-.01,5.6-.02,.89,.32,1.21,1.18,1.19,1.39-.03,2.78-.02,4.17,0,1.37,.03,2.09,.67,2.06,1.77-.03,1.08-.78,1.71-2.13,1.72Zm7.87-2.18c0,1.38-.69,2.19-1.81,2.18-1.08-.01-1.83-.86-1.84-2.21-.02-4.57-.02-9.13,0-13.7,0-1.32,.8-2.12,1.93-2.09,1.1,.03,1.71,.77,1.72,2.12,.01,2.3,0,4.6,0,6.91,0,2.26,0,4.53,0,6.79Zm17.88-.02c0,.95-.25,1.74-1.25,2.08-1,.34-1.68-.13-2.25-.89-2.2-2.93-4.4-5.85-6.6-8.78-.22-.29-.48-.55-.97-1.11-.05,.8-.09,1.22-.1,1.63,0,2.43,0,4.86-.01,7.28,0,1.21-.71,1.97-1.75,1.98-1.03,.01-1.77-.75-1.78-1.97-.03-4.66-.01-9.31-.02-13.97,0-.92,.28-1.68,1.21-1.98,.96-.31,1.69,.13,2.26,.9,2.05,2.74,4.11,5.48,6.16,8.21,.35,.47,.72,.92,1.09,1.39,.12-.04,.24-.07,.36-.11,0-1.89,0-3.79,0-5.68,0-.92-.01-1.83,0-2.75,.03-1.29,.72-2.04,1.83-2.04,1.12,0,1.79,.73,1.8,2.06,.02,3.22,0,6.45,0,9.67,0,1.35,0,2.71,0,4.06Zm9.02-1.3c1.03,0,2.07-.02,3.1,.03,1.13,.05,1.76,.69,1.77,1.68,.01,.98-.64,1.75-1.7,1.77-2.51,.05-5.01,.06-7.52,0-1.09-.02-1.68-.73-1.7-1.89-.03-2.39,0-4.78,0-7.16h0c0-2.27-.02-4.54,0-6.81,.02-1.58,.58-2.12,2.18-2.13,2.23,0,4.46-.01,6.69,0,1.34,0,2.07,.66,2.06,1.77-.01,1.07-.7,1.68-2,1.7-1.39,.02-2.79,.04-4.18,0-.84-.02-1.23,.24-1.22,1.15,.04,3.15-.21,2.53,2.5,2.59,.95,.02,1.91-.02,2.87,.01,1.28,.04,2,.66,2.04,1.7,.04,1.09-.69,1.83-2,1.89-1.43,.06-2.87,.06-4.3,0-.85-.03-1.11,.3-1.1,1.11,.04,2.9-.28,2.56,2.53,2.59Z"/></g></svg>